<?xml version="1.0" standalone="no"?>
<!DOCTYPE svg PUBLIC "-//W3C//DTD SVG 20010904//EN"
 "http://www.w3.org/TR/2001/REC-SVG-20010904/DTD/svg10.dtd">
<svg version="1.0" xmlns="http://www.w3.org/2000/svg"
 width="715.000000pt" height="465.000000pt" viewBox="0 0 715.000000 465.000000"
 preserveAspectRatio="xMidYMid meet">
<metadata>
Created by potrace 1.15, written by Peter Selinger 2001-2017
</metadata>
<g transform="translate(0.000000,465.000000) scale(0.100000,-0.100000)"
fill="#000000" stroke="none">
<path d="M5533 4630 c-15 -8 -41 -29 -57 -48 -25 -28 -29 -42 -30 -92 -1 -52
3 -62 29 -90 16 -17 53 -43 82 -57 29 -15 53 -30 53 -34 0 -4 11 -10 25 -13
14 -4 25 -10 25 -15 0 -4 22 -23 49 -41 l49 -34 -5 -80 c-8 -116 -6 -114 -120
-118 -78 -2 -106 1 -135 15 -21 9 -38 21 -38 25 0 4 -12 13 -27 19 -41 18
-137 73 -143 82 -11 18 -77 32 -103 22 -14 -5 -27 -8 -29 -5 -3 2 -23 -12 -45
-31 -31 -27 -41 -43 -46 -75 -10 -76 13 -108 134 -185 66 -42 171 -116 187
-132 7 -7 17 -13 20 -13 4 0 30 -21 58 -47 29 -27 69 -64 90 -83 86 -78 236
-258 308 -370 27 -41 56 -86 65 -100 17 -26 105 -203 127 -255 6 -16 18 -43
25 -60 7 -16 14 -37 14 -45 1 -9 7 -26 14 -38 6 -12 9 -22 6 -22 -3 0 -1 -8 4
-18 6 -11 12 -30 15 -43 3 -13 10 -44 17 -69 17 -70 19 -83 25 -120 2 -19 6
-46 8 -60 13 -77 17 -127 18 -241 0 -70 -2 -131 -6 -137 -3 -6 1 -29 10 -52
28 -69 112 -106 196 -88 27 6 88 64 89 85 0 10 2 36 4 58 6 77 6 270 -1 320
-4 28 -6 68 -5 90 1 42 29 105 45 105 5 0 18 8 29 17 15 14 37 18 108 18 48 0
92 -5 98 -10 18 -19 43 -231 46 -398 3 -152 5 -169 25 -194 36 -46 79 -65 145
-66 63 -1 97 14 143 60 22 22 22 25 18 240 -4 227 -22 376 -67 554 -11 46 -24
100 -29 119 -27 114 -107 311 -208 510 -103 205 -175 314 -368 560 -81 102
-314 328 -454 439 -85 67 -94 74 -112 86 -9 6 -60 40 -115 77 -56 36 -114 73
-131 82 -36 19 -88 17 -129 -4z m81 -109 c3 -5 32 -24 64 -41 31 -18 75 -47
97 -64 21 -17 46 -35 55 -41 9 -5 32 -20 51 -32 l34 -23 -53 0 c-47 0 -95 18
-112 42 -8 11 -94 68 -103 68 -22 0 -87 52 -87 69 0 26 42 42 54 22z m384
-332 c74 -3 88 -12 210 -136 72 -73 245 -276 285 -333 37 -53 112 -166 123
-185 6 -11 25 -44 42 -73 74 -123 212 -429 227 -499 2 -10 8 -31 15 -48 25
-66 71 -255 85 -355 3 -19 10 -66 16 -105 17 -103 21 -431 6 -443 -7 -6 -24
-8 -38 -5 l-26 5 0 136 c0 76 -4 164 -7 197 -4 33 -9 78 -11 100 -3 22 -7 51
-10 65 -2 14 -7 39 -11 57 -7 34 -47 76 -85 88 -13 4 -27 12 -30 18 -11 17
-178 13 -229 -5 -159 -57 -208 -137 -186 -303 3 -27 6 -106 6 -175 0 -69 0
-139 0 -157 1 -34 -24 -66 -48 -61 -14 3 -16 29 -18 183 -3 192 -9 285 -23
325 -5 14 -14 54 -21 90 -6 36 -15 79 -20 95 -21 69 -52 161 -60 180 -64 153
-101 228 -159 328 -25 43 -51 87 -57 98 -6 11 -21 30 -33 43 -11 12 -21 26
-21 30 0 17 -180 229 -265 312 l-72 70 -15 86 -14 87 81 -3 c92 -2 114 5 177
58 52 43 57 60 60 179 l2 69 30 -6 c17 -3 59 -6 94 -7z m-778 -129 c0 -5 5
-10 11 -10 12 0 160 -87 169 -99 3 -4 13 -10 23 -14 11 -4 17 -17 17 -36 0
-16 3 -37 7 -46 5 -15 3 -16 -15 -6 -11 6 -27 17 -34 25 -19 19 -166 114 -200
128 -26 12 -31 29 -15 56 10 14 37 16 37 2z"/>
<path d="M6002 3997 c-35 -35 -43 -50 -40 -73 3 -25 8 -29 37 -32 28 -3 41 3
78 40 35 35 43 49 41 73 -3 26 -7 30 -38 33 -30 2 -41 -3 -78 -41z"/>
<path d="M6040 3838 c0 -5 5 -6 11 -2 6 3 4 -5 -5 -18 -9 -14 -28 -30 -41 -36
-14 -7 -30 -23 -35 -36 -5 -14 -19 -26 -32 -28 -27 -4 -34 -26 -16 -51 11 -15
18 -15 51 -5 23 7 44 23 54 39 9 15 26 30 38 33 25 6 59 63 54 91 -3 15 -13
19 -42 20 -20 1 -37 -2 -37 -7z"/>
<path d="M5762 3767 c-35 -35 -43 -50 -40 -73 2 -24 8 -30 32 -32 42 -5 118
70 114 113 -3 25 -8 30 -33 33 -24 2 -38 -6 -73 -41z"/>
<path d="M1438 4183 c-1 -5 -23 -18 -48 -31 -51 -26 -79 -42 -96 -57 -6 -5
-22 -17 -34 -25 -13 -8 -30 -23 -39 -32 -8 -10 -19 -18 -24 -18 -12 0 -126
-122 -133 -142 -3 -10 -10 -18 -15 -18 -5 0 -9 -7 -9 -15 0 -9 -7 -18 -15 -21
-8 -4 -15 -12 -15 -20 0 -8 -4 -14 -10 -14 -5 0 -10 -9 -10 -20 0 -11 -7 -23
-15 -26 -8 -4 -15 -11 -15 -18 0 -6 -7 -23 -14 -38 -8 -16 -18 -48 -21 -73 -4
-24 -12 -48 -19 -54 -6 -5 -80 -11 -165 -13 -108 -3 -156 -8 -159 -16 -2 -7
-10 -12 -17 -12 -51 0 -61 -86 -16 -131 16 -16 26 -29 23 -30 -19 -3 49 -17
86 -18 23 -1 42 -5 42 -11 0 -6 35 -10 85 -10 84 0 85 0 85 -25 0 -14 -4 -25
-9 -25 -5 0 -12 -34 -16 -75 -4 -41 -11 -75 -15 -75 -4 0 -10 -30 -12 -66 -2
-36 -9 -69 -16 -72 -6 -4 -14 -27 -18 -50 -4 -23 -10 -42 -15 -42 -4 0 -11
-20 -15 -45 -3 -25 -10 -45 -15 -45 -5 0 -9 -9 -9 -19 0 -11 -7 -26 -15 -35
-8 -8 -15 -19 -15 -25 0 -6 -3 -11 -8 -11 -4 0 -18 -24 -32 -52 -13 -29 -30
-59 -37 -66 -7 -7 -13 -19 -13 -26 0 -7 -10 -22 -22 -33 -17 -15 -32 -19 -60
-16 -21 3 -38 9 -38 14 0 5 -47 9 -105 9 -58 0 -105 -4 -105 -9 0 -5 -20 -12
-45 -15 -25 -4 -45 -11 -45 -16 0 -4 -11 -11 -25 -14 -42 -11 -112 -76 -121
-113 -4 -13 -10 -23 -14 -23 -9 0 -30 -112 -30 -162 0 -30 8 -44 47 -82 25
-25 54 -46 64 -46 9 0 19 -6 22 -12 5 -17 304 -19 315 -2 4 5 26 20 50 31 44
22 95 64 145 124 17 19 31 29 35 22 4 -6 17 -13 30 -17 12 -4 22 -12 22 -17 0
-5 6 -9 14 -9 8 0 21 -6 28 -14 8 -7 24 -17 36 -20 12 -4 22 -12 22 -17 0 -5
6 -9 14 -9 8 0 21 -6 28 -13 7 -6 32 -21 55 -32 24 -11 43 -23 43 -27 0 -3 23
-9 50 -13 28 -4 50 -10 50 -15 0 -12 117 -24 230 -24 112 0 212 12 205 24 -3
4 15 11 40 14 25 4 45 11 45 17 0 5 4 9 10 9 11 0 160 89 178 107 7 7 18 13
23 13 6 0 20 10 32 23 12 12 40 37 63 54 l41 32 15 -32 c22 -47 66 -95 101
-114 93 -48 318 21 497 153 36 26 126 108 201 181 l137 134 24 -53 c48 -105
166 -191 281 -207 85 -12 206 4 297 39 86 34 222 118 310 194 34 29 56 42 59
34 2 -6 -1 -14 -7 -16 -7 -2 -12 -15 -12 -28 0 -14 -6 -40 -14 -58 -7 -18 -17
-52 -21 -75 -4 -22 -10 -41 -15 -41 -4 0 -11 -20 -14 -45 -4 -25 -11 -45 -17
-45 -5 0 -9 -11 -9 -25 0 -14 -4 -25 -9 -25 -5 0 -11 -18 -15 -40 -3 -22 -10
-40 -16 -40 -5 0 -12 -20 -16 -45 -3 -25 -10 -45 -15 -45 -5 0 -9 -10 -9 -22
-1 -13 -9 -41 -20 -63 -11 -22 -19 -50 -20 -62 0 -13 -4 -23 -9 -23 -5 0 -11
-19 -15 -42 -4 -23 -12 -45 -17 -49 -6 -4 -13 -45 -16 -93 l-6 -86 40 -40 c39
-38 44 -40 103 -40 59 0 65 2 96 36 19 19 34 42 34 50 0 8 4 14 9 14 5 0 12
18 16 40 4 22 11 40 16 40 5 0 9 10 9 23 0 12 7 34 14 49 8 16 18 48 22 73 3
25 10 45 15 45 5 0 9 13 9 29 0 17 5 33 11 36 6 4 8 13 5 21 -3 7 -1 16 4 19
6 4 10 20 10 36 0 17 4 28 9 25 5 -3 12 16 16 44 4 27 10 50 15 50 4 0 11 25
15 55 3 30 10 55 15 55 5 0 12 20 16 45 3 25 10 45 14 45 5 0 11 13 15 30 4
17 10 30 15 30 4 0 10 18 14 40 3 22 11 40 16 40 6 0 10 5 10 11 0 22 67 111
171 226 16 18 29 35 29 38 0 3 39 45 88 95 48 49 92 95 98 102 22 24 82 78 88
78 3 0 19 14 36 30 17 17 35 30 41 30 5 0 15 5 22 10 47 40 63 51 88 62 16 7
29 16 29 20 0 3 14 9 30 13 17 4 30 11 30 15 0 5 16 12 35 16 19 3 38 10 41
15 2 5 27 11 54 15 28 4 50 10 50 15 0 5 14 9 30 9 17 0 30 -4 30 -10 0 -5 8
-10 18 -10 11 0 32 -11 48 -25 29 -25 29 -26 29 -132 0 -76 -4 -108 -12 -110
-7 -3 -13 -12 -13 -20 0 -17 -39 -86 -52 -91 -4 -2 -8 -9 -8 -16 0 -30 -226
-257 -270 -271 -11 -3 -20 -11 -20 -16 0 -5 -7 -9 -15 -9 -8 0 -15 -4 -15 -9
0 -5 -15 -13 -32 -16 -18 -4 -36 -12 -39 -17 -3 -5 -60 -12 -127 -15 -67 -3
-122 -9 -122 -13 0 -4 -35 -10 -77 -14 -42 -3 -79 -10 -82 -15 -3 -4 -16 -11
-28 -15 -13 -4 -26 -18 -29 -32 -3 -13 -10 -24 -15 -24 -32 0 15 -134 51 -145
11 -3 20 -11 20 -16 0 -5 5 -9 11 -9 6 0 26 -7 44 -16 53 -25 233 -10 310 26
63 29 115 50 124 50 6 0 11 4 11 9 0 5 18 12 40 16 22 4 40 10 40 15 0 4 27
11 60 15 33 4 57 11 54 16 -3 5 12 9 33 9 21 1 56 5 78 10 22 5 54 12 70 15
17 4 50 16 75 28 25 11 52 22 60 23 8 2 23 13 32 26 10 13 23 29 30 37 7 8 14
42 16 76 4 52 1 63 -13 69 -22 8 -85 -3 -85 -15 0 -5 -18 -12 -40 -15 -22 -4
-37 -10 -34 -15 3 -5 -8 -9 -25 -9 -16 0 -38 -3 -48 -7 -20 -7 -3 9 56 55 39
30 103 94 133 133 12 16 31 40 41 51 9 12 17 27 17 35 0 7 4 13 9 13 5 0 12
14 16 30 4 17 11 30 16 30 5 0 9 11 9 25 0 14 4 25 10 25 14 0 11 261 -4 301
-34 88 -39 99 -46 99 -5 0 -17 13 -26 29 -10 16 -25 32 -33 35 -9 3 -23 10
-31 15 -53 34 -87 41 -201 41 -65 0 -120 -4 -124 -9 -3 -6 -26 -13 -50 -17
-25 -3 -45 -10 -45 -15 0 -4 -16 -11 -35 -15 -19 -3 -35 -10 -35 -14 0 -5 -13
-11 -30 -15 -16 -4 -30 -10 -30 -15 0 -5 -13 -11 -30 -15 -16 -4 -30 -10 -30
-15 0 -5 -14 -11 -30 -15 -17 -4 -28 -11 -24 -16 3 -5 -2 -9 -10 -9 -9 0 -16
-3 -16 -8 0 -4 -16 -16 -36 -27 -19 -10 -45 -27 -57 -37 -56 -47 -92 -78 -164
-145 -43 -40 -81 -73 -85 -73 -5 0 -8 -5 -8 -11 0 -6 -13 -24 -29 -40 -17 -16
-41 -44 -55 -62 -19 -23 -26 -27 -26 -14 0 9 4 17 9 17 5 0 12 20 15 45 4 25
11 45 17 45 5 0 9 6 9 13 0 6 6 24 14 39 8 15 17 40 21 57 4 17 10 31 15 31 5
0 11 14 15 30 4 17 11 30 16 30 5 0 9 11 9 24 0 13 5 26 11 28 16 5 25 168 10
168 -7 0 -9 4 -6 10 3 5 -9 23 -27 39 -28 26 -41 30 -89 31 -51 0 -59 -3 -90
-34 -52 -52 -69 -78 -69 -103 0 -13 -4 -23 -9 -23 -5 0 -12 -16 -16 -36 -3
-20 -10 -44 -15 -53 -10 -19 -27 -84 -41 -156 -5 -27 -14 -59 -19 -70 -5 -11
-12 -40 -16 -65 -10 -66 -26 -91 -107 -165 -202 -183 -401 -288 -549 -289 -58
-1 -71 3 -109 29 -57 40 -94 96 -115 172 -22 83 -15 167 30 356 45 186 46 238
7 321 -17 34 -40 71 -53 83 -56 52 -260 70 -380 33 -74 -23 -198 -95 -290
-168 -238 -189 -439 -511 -497 -798 -16 -76 -25 -98 -46 -117 -14 -12 -38 -34
-53 -48 -15 -14 -40 -34 -57 -45 -16 -10 -34 -22 -40 -27 -26 -21 -118 -77
-126 -77 -5 0 -9 -4 -9 -9 0 -5 -13 -12 -30 -16 -16 -4 -30 -10 -30 -14 0 -12
-95 -33 -175 -38 -60 -4 -94 0 -137 14 -32 10 -58 21 -58 25 0 3 -13 9 -30 13
-16 4 -30 10 -30 15 0 5 -13 11 -30 15 -16 4 -30 10 -30 13 0 4 -25 18 -55 31
-30 14 -55 28 -55 33 0 4 -5 8 -11 8 -5 0 -31 10 -57 21 -38 17 -43 23 -31 33
7 6 23 28 34 49 11 20 23 37 27 37 5 0 8 5 8 11 0 16 43 103 53 107 4 2 10 21
13 43 4 21 10 39 15 39 5 0 9 9 9 19 0 11 6 26 13 33 13 13 31 74 47 160 5 26
13 56 19 67 6 11 11 31 11 46 0 15 4 24 10 20 5 -3 10 4 9 17 -1 49 14 159 22
164 5 3 9 13 9 24 0 25 19 30 111 30 43 0 79 4 79 9 0 5 25 12 55 16 30 3 55
11 55 16 0 5 7 9 15 9 17 0 132 58 153 78 7 6 17 12 22 12 5 0 23 12 39 28 16
15 40 36 53 47 31 27 118 146 118 162 0 7 5 13 10 13 6 0 10 9 10 19 0 11 4
22 9 25 5 3 12 18 16 33 3 15 12 31 18 35 17 11 17 250 0 256 -7 2 -13 10 -13
17 0 17 -60 75 -77 75 -8 0 -11 5 -8 10 4 7 -55 10 -169 10 -96 0 -176 -3
-178 -7z m197 -209 c20 -13 25 -25 25 -60 0 -25 -8 -59 -20 -79 -11 -19 -18
-35 -15 -35 8 0 -28 -43 -82 -97 -29 -29 -59 -53 -68 -53 -8 0 -15 -4 -15 -10
0 -5 -16 -12 -35 -16 -19 -3 -35 -9 -35 -13 0 -8 -76 -31 -140 -41 -25 -5 -55
-11 -67 -15 -16 -5 -23 -3 -23 5 0 19 33 90 41 90 4 0 10 14 14 30 4 17 11 30
16 30 5 0 9 6 9 13 0 18 118 149 160 177 12 8 28 20 35 27 7 7 24 15 39 19 14
3 26 10 26 15 0 5 11 9 24 9 14 0 28 5 31 10 9 15 53 12 80 -6z m1251 -605
c29 -32 26 -234 -4 -342 -83 -293 -305 -533 -581 -628 -76 -27 -127 -25 -146
4 -53 81 -25 249 75 447 167 334 387 537 586 539 40 1 55 -4 70 -20z m-2440
-1044 c19 -18 17 -24 -19 -57 -31 -27 -139 -54 -170 -42 -38 14 -26 73 20 97
38 20 150 22 169 2z"/>
<path d="M5775 2361 c-51 -21 -77 -77 -104 -227 -30 -162 -139 -621 -154 -645
-6 -11 -21 -22 -32 -24 -23 -5 -275 -31 -385 -41 -41 -3 -90 -12 -107 -20 -30
-12 -33 -17 -33 -56 0 -50 29 -104 63 -117 50 -19 127 -21 242 -6 215 27 224
24 204 -77 -14 -72 -34 -99 -163 -216 -253 -229 -493 -361 -664 -364 -82 -1
-133 22 -185 83 -80 93 -86 193 -26 426 50 194 50 242 -2 328 -54 90 -80 100
-269 100 -153 0 -156 0 -230 -32 -212 -93 -403 -253 -536 -450 -69 -102 -291
-330 -434 -444 -279 -224 -531 -342 -731 -343 -76 -1 -92 2 -144 29 -120 61
-170 175 -169 385 1 345 132 648 407 937 179 188 441 337 562 318 25 -3 45
-11 45 -16 0 -16 -35 -79 -84 -152 -67 -100 -63 -172 11 -204 85 -35 167 19
227 148 42 90 76 190 76 222 0 53 -84 148 -170 192 -43 22 -170 22 -254 0 -80
-21 -249 -110 -366 -193 -113 -80 -301 -264 -390 -381 -293 -388 -392 -884
-242 -1213 35 -77 114 -166 181 -206 137 -80 379 -83 594 -5 169 60 400 197
572 337 l80 66 13 -83 c22 -147 103 -267 190 -283 86 -16 227 18 374 92 85 43
237 158 356 269 51 48 94 86 95 84 1 -2 13 -25 26 -52 70 -139 238 -213 428
-188 195 25 340 100 593 310 80 65 146 118 148 117 1 -2 -7 -47 -18 -102 -30
-145 -37 -276 -17 -345 20 -68 52 -116 96 -146 103 -70 339 34 269 118 -7 8
-30 27 -51 43 -71 52 -79 94 -51 301 22 168 27 195 86 437 l53 217 65 15 c36
8 146 24 245 36 409 47 621 101 706 177 35 32 39 40 39 83 0 63 -12 66 -129
40 -50 -11 -131 -29 -179 -40 -99 -22 -427 -65 -574 -75 -117 -8 -138 0 -138
51 0 56 37 222 92 408 73 250 75 336 7 371 -30 16 -82 19 -114 6z m-1586
-1077 c18 -23 21 -41 21 -119 0 -265 -145 -511 -397 -676 -133 -86 -322 -149
-359 -118 -49 40 -56 131 -19 246 88 278 336 581 542 662 58 23 83 28 145 30
39 1 50 -3 67 -25z"/>
</g>
</svg>
