<svg viewBox="0 0 512 512" fill="#dbc1bc" xmlns="http://www.w3.org/2000/svg">
  <path d="m366 408c0 4.140625-3.359375 7.5-7.5 7.5s-7.5-3.359375-7.5-7.5 3.359375-7.5 7.5-7.5 7.5 3.359375 7.5 7.5zm0 0"/>
  <path d="m489.5 467h-20v-18.75c0-4.144531-3.359375-7.5-7.5-7.5s-7.5 3.355469-7.5 7.5v18.75h-33v-132.5c0-4.144531-3.359375-7.5-7.5-7.5h-82c-4.140625 0-7.5 3.355469-7.5 7.5v132.5h-18v-132.5c0-4.144531-3.359375-7.5-7.5-7.5h-139c-4.140625 0-7.5 3.355469-7.5 7.5s3.359375 7.5 7.5 7.5h131.5v125h-15v-28.5c0-4.144531-3.359375-7.5-7.5-7.5h-138c-4.140625 0-7.5 3.355469-7.5 7.5v28.5h-15v-125h19.5c4.140625 0 7.5-3.355469 7.5-7.5s-3.359375-7.5-7.5-7.5h-27c-4.140625 0-7.5 3.355469-7.5 7.5v132.5h-36v-159.53125c.386719.015625.773438.03125 1.167969.03125 9.894531 0 18.761719-4.496094 24.667969-11.550781 5.902343 7.054687 14.765624 11.550781 24.664062 11.550781s18.761719-4.496094 24.667969-11.550781c5.90625 7.054687 14.769531 11.550781 24.667969 11.550781 9.894531 0 18.761718-4.496094 24.667968-11.550781 5.902344 7.054687 14.765625 11.550781 24.664063 11.550781 9.898437 0 18.761719-4.496094 24.667969-11.550781 5.90625 7.054687 14.769531 11.550781 24.667968 11.550781 9.898438 0 18.761719-4.496094 24.667969-11.550781 5.902344 7.054687 14.769531 11.550781 24.664063 11.550781 9.898437 0 18.761718-4.496094 24.667968-11.550781 5.90625 7.054687 14.769532 11.550781 24.667969 11.550781 9.894531 0 18.761719-4.496094 24.667969-11.550781 5.902344 7.054687 14.765625 11.550781 24.664062 11.550781 9.898438 0 18.761719-4.496094 24.667969-11.550781 5.90625 7.054687 14.769531 11.550781 24.667969 11.550781.390625 0 .777344-.015625 1.167968-.03125v108.03125c0 4.144531 3.355469 7.5 7.5 7.5 4.140626 0 7.5-3.355469 7.5-7.5v-112.375c9.558594-5.582031 16-15.945312 16-27.792969v-267.832031c0-4.144531-3.359374-7.5-7.5-7.5h-444.007812c-4.140625 0-7.5 3.355469-7.5 7.5v24.5c0 4.144531 3.359375 7.5 7.5 7.5s7.5-3.355469 7.5-7.5v-17h429v161.5h-429v-112.667969c0-4.140625-3.359375-7.5-7.5-7.5s-7.5 3.359375-7.5 7.5v211.5c0 11.847657 6.441406 22.210938 16 27.792969v163.875h-20c-12.40625 0-22.5 10.09375-22.5 22.5s10.09375 22.5 22.5 22.5h467c12.40625 0 22.5-10.09375 22.5-22.5s-10.09375-22.5-22.5-22.5zm-381.5-174.5c-9.464844 0-17.167969-7.699219-17.167969-17.167969v-25.832031h34.332031v25.832031c.003907 9.46875-7.699218 17.167969-17.164062 17.167969zm49.332031 0c-9.464843 0-17.167969-7.699219-17.167969-17.167969v-25.832031h34.335938v25.832031c0 9.46875-7.699219 17.167969-17.167969 17.167969zm49.335938 0c-9.46875 0-17.167969-7.699219-17.167969-17.167969v-25.832031h34.332031v25.832031c0 9.46875-7.699219 17.167969-17.164062 17.167969zm49.332031 0c-9.464844 0-17.167969-7.699219-17.167969-17.167969v-25.832031h34.332031v25.832031c.003907 9.46875-7.699218 17.167969-17.164062 17.167969zm49.332031 0c-9.464843 0-17.167969-7.699219-17.167969-17.167969v-25.832031h34.335938v25.832031c0 9.46875-7.699219 17.167969-17.167969 17.167969zm49.335938 0c-9.46875 0-17.167969-7.699219-17.167969-17.167969v-25.832031h34.332031v25.832031c0 9.46875-7.699219 17.167969-17.164062 17.167969zm49.332031 0c-9.464844 0-17.167969-7.699219-17.167969-17.167969v-25.832031h34.332031v25.832031c.003907 9.46875-7.699218 17.167969-17.164062 17.167969zm66.5-17.167969c0 9.46875-7.699219 17.167969-17.167969 17.167969-9.464843 0-17.167969-7.699219-17.167969-17.167969v-25.832031h34.335938zm0-40.832031h-34.332031v-43h34.332031zm-49.332031 0h-34.332031v-43h34.332031zm-49.335938 0h-34.332031v-43h34.332031zm-49.332031 0h-34.332031v-43h34.332031zm-49.332031 0h-34.332031v-43h34.332031zm-49.335938 0h-34.332031v-43h34.332031zm-49.332031 0h-34.332031v-43h34.332031zm-49.332031 0h-34.335938v-43h34.332031v43zm-49.335938-43v43h-34.332031v-43zm-34.332031 58h34.332031v25.832031c0 9.46875-7.699219 17.167969-17.167969 17.167969-9.464843 0-17.164062-7.699219-17.164062-17.167969zm298 92.5h67v125h-67zm-201 104h123v21h-123zm351 51h-467c-4.136719 0-7.5-3.363281-7.5-7.5s3.363281-7.5 7.5-7.5h467c4.136719 0 7.5 3.363281 7.5 7.5s-3.363281 7.5-7.5 7.5zm0 0"/>
  <path d="m346 57.410156c0-20.074218-16.351562-36.410156-36.449219-36.410156-17.152343 0-31.566406 11.90625-35.417969 27.875-5.808593-1.207031-11.878906-1.851562-18.132812-1.851562s-12.324219.644531-18.132812 1.851562c-3.851563-15.96875-18.265626-27.875-35.417969-27.875-20.097657 0-36.449219 16.335938-36.449219 36.410156 0 13.78125 7.644531 26.011719 19.378906 32.191406-2.242187 5.808594-3.457031 11.996094-3.457031 18.410157 0 33.628906 33.230469 60.988281 74.078125 60.988281s74.078125-27.359375 74.078125-60.988281c0-6.414063-1.214844-12.601563-3.457031-18.410157 11.734375-6.179687 19.378906-18.410156 19.378906-32.191406zm-165 0c0-11.804687 9.621094-21.410156 21.449219-21.410156 10.390625 0 19.070312 7.417969 21.023437 17.230469-12.773437 5.160156-23.492187 13.253906-30.839844 23.21875-7.03125-3.589844-11.632812-10.84375-11.632812-19.039063zm75 96.589844c-32.574219 0-59.078125-20.632812-59.078125-45.988281 0-25.359375 26.503906-45.992188 59.078125-45.992188s59.078125 20.632813 59.078125 45.992188c0 25.355469-26.503906 45.988281-59.078125 45.988281zm63.367188-77.550781c-7.347657-9.960938-18.066407-18.058594-30.839844-23.21875 1.953125-9.8125 10.632812-17.230469 21.023437-17.230469 11.828125 0 21.449219 9.605469 21.449219 21.410156 0 8.195313-4.601562 15.449219-11.632812 19.039063zm0 0"/><path d="m244.683594 85.996094c0 4.140625-3.359375 7.5-7.5 7.5s-7.5-3.359375-7.5-7.5 3.359375-7.5 7.5-7.5 7.5 3.359375 7.5 7.5zm0 0"/><path d="m282.316406 85.996094c0 4.140625-3.359375 7.5-7.5 7.5s-7.5-3.359375-7.5-7.5 3.359375-7.5 7.5-7.5 7.5 3.359375 7.5 7.5zm0 0"/>
</svg>
