<svg xmlns="http://www.w3.org/2000/svg" height="512pt" viewBox="-27 0 512 512" width="512pt" fill="#dbc1bc"><path d="M265.816 189.398a7.5 7.5 0 0 0 7.5-7.5v-14.644a7.5 7.5 0 0 0-7.5-7.5 7.5 7.5 0 0 0-7.5 7.5v14.644a7.5 7.5 0 0 0 7.5 7.5zm-9.976 21.532h19.953a7.5 7.5 0 1 0 0-15H255.84a7.5 7.5 0 1 0 0 15zm-140.695-21.532a7.5 7.5 0 0 0 7.5-7.5v-14.644a7.5 7.5 0 0 0-7.5-7.5 7.497 7.497 0 0 0-7.5 7.5v14.644c0 4.145 3.355 7.5 7.5 7.5zm-9.977 21.532h19.95c4.144 0 7.5-3.356 7.5-7.5a7.5 7.5 0 0 0-7.5-7.5h-19.95a7.5 7.5 0 0 0-7.5 7.5c0 4.144 3.355 7.5 7.5 7.5zm85.312-.825c7.415 0 14.387-3.109 19.122-8.527a7.497 7.497 0 0 0-.711-10.582 7.5 7.5 0 0 0-10.582.711c-1.887 2.16-4.743 3.398-7.829 3.398-3.085 0-5.94-1.238-7.828-3.398a7.5 7.5 0 0 0-10.582-.71 7.497 7.497 0 0 0-.71 10.581c4.734 5.418 11.702 8.527 19.12 8.527zm0 0"/><path d="M17.723 197.855c0 46.317 18.332 79.61 54.488 98.961 9.574 5.122 20.324 9.297 32.477 12.57-2.145 12.946-8.583 25.837-15.352 39.376-9.856 19.715-21.027 42.058-20.262 68.648.121 4.14 3.578 7.402 7.715 7.277a7.498 7.498 0 0 0 7.281-7.71c-.66-22.82 9.172-42.485 18.684-61.504 7.164-14.328 13.992-27.993 16.594-42.711 12.468 2.43 26.254 4.078 41.547 4.972 19.68 1.149 39.503 1.121 59.18 0 15.292-.894 29.073-2.543 41.538-4.972 2.602 14.718 9.438 28.383 16.602 42.71 8.887 17.766 18.074 36.133 18.691 57.048a76.455 76.455 0 0 1-.539 11.41c-2.472 20.168-13.023 41.101-32.02 63.629-5.062 6-12.538 9.441-20.523 9.441h-5.285c19.738-42.457 14.024-94.594 13.742-96.988a7.499 7.499 0 0 0-8.308-6.586 7.498 7.498 0 0 0-6.59 8.312c.066.57 6.152 55.899-15.653 95.262h-23.75v-96.125c0-4.14-3.359-7.5-7.5-7.5-4.14 0-7.5 3.36-7.5 7.5V497h-23.75c-21.71-39.215-15.734-94.52-15.652-95.266a7.497 7.497 0 0 0-6.59-8.308 7.494 7.494 0 0 0-8.308 6.586c-.278 2.394-5.996 54.531 13.742 96.988h-5.285c-7.98 0-15.461-3.441-20.52-9.441-12.574-14.907-21.594-29.387-26.816-43.043a7.496 7.496 0 0 0-9.684-4.329c-3.867 1.477-5.805 5.813-4.328 9.684 5.906 15.445 15.512 30.938 29.36 47.36 7.917 9.386 19.578 14.769 31.988 14.769h106.687c12.414 0 24.074-5.383 31.988-14.77 8.731-10.351 15.848-20.472 21.391-30.43 25.406-4.765 44.758-15.386 59.031-32.421 17.188-20.512 23.282-45.957 29.176-70.567 3.445-14.394 6.703-27.992 11.969-40.675a7.504 7.504 0 0 0-4.055-9.805 7.498 7.498 0 0 0-9.8 4.055c-5.72 13.785-9.27 28.601-12.704 42.93-5.488 22.921-11.168 46.624-26.082 64.425-9.879 11.793-22.851 19.957-39.406 24.754 2.672-7.043 4.5-14.016 5.543-20.984.457-3.047.781-6.117.938-9.2 21.48-12.378 27.09-35.789 34.078-64.968 4.691-19.59 10.011-41.797 21.347-62.258 12.88-23.238 31.625-40.707 57.32-53.402 6.27-3.094 14.083-.434 17.169 5.816 3.097 6.273.441 14.078-5.817 17.172-15.12 7.469-27.058 16.777-36.5 28.46a7.497 7.497 0 0 0 1.117 10.548c3.223 2.601 7.946 2.101 10.547-1.118 8.051-9.96 18.348-17.953 31.48-24.445 13.497-6.668 19.29-23.472 12.727-37.043a9.094 9.094 0 0 1-.105-.219c-6.664-13.488-23.485-19.28-37.043-12.726l-.219.105c-28.523 14.094-49.39 33.582-63.797 59.578-12.328 22.25-17.898 45.512-22.816 66.04-5.758 24.039-9.707 40.488-20.367 50.546-2.868-19.718-11.516-37.066-19.305-52.636-6.774-13.54-13.211-26.43-15.356-39.375 12.153-3.274 22.903-7.45 32.473-12.57 36.156-19.352 54.492-52.649 54.492-98.965 0-19.696-2.148-38.317-6.347-55.676 30.015-47.106 25.574-95.711 20.132-120.778C374.598 10.218 365.25 1.902 353.773.7c-4.441-.466-8.906-.7-13.265-.7-38.965 0-64.012 18.293-73.434 26.664-23.547-11.656-49.906-17.988-76.594-17.988-26.69 0-53.05 6.332-76.593 17.988C104.46 18.293 79.41 0 40.449 0c-4.36 0-8.82.234-13.261.7-11.481 1.202-20.825 9.519-23.25 20.698C-1.508 46.465-5.945 95.07 24.07 142.176c-4.199 17.36-6.347 35.98-6.347 55.68zM46.082 45.72c12.145.96 21.629 4.765 28.078 8.336a152.963 152.963 0 0 0-3.344 3.222 166.88 166.88 0 0 0-22.332 27.387C45.086 70.13 45.027 56.54 46.082 45.72zm286.395 38.945a166.512 166.512 0 0 0-25.211-30.168c-.157-.144-.309-.297-.465-.441 6.449-3.567 15.933-7.375 28.074-8.332 1.055 10.812.996 24.41-2.398 38.941zM340.512 15c3.84 0 7.773.207 11.699.617 5.023.528 9.105 4.13 10.152 8.965 4.496 20.688 8.274 58.98-11.363 97.723-.316-.89-2.266-5.754-2.793-7.34a180.354 180.354 0 0 0-5.504-12.317c9.402-25.437 8.61-49.66 6.188-65.77a7.496 7.496 0 0 0-7.344-6.382l-.828-.004c-21.285 0-36.774 7.258-46 13.32a164.148 164.148 0 0 0-13.512-9.359C291.172 26.828 311.336 15 340.512 15zM290.48 59.652c40.278 33.649 57.758 86.977 57.758 138.2 0 40.925-15.23 68.968-46.566 85.738-28.559 15.281-62.48 18.676-94.352 19.707-.257.008-33.422.008-33.68 0-31.882-1.04-65.757-4.406-94.35-19.707-31.337-16.77-46.567-44.813-46.567-85.738 0-47.473 14.242-95.446 48.422-129.645 28.597-28.613 69.007-44.531 109.335-44.531 36.606 0 72.516 13.015 100 35.976zM18.594 24.582c1.05-4.836 5.133-8.437 10.156-8.965 3.926-.41 7.86-.617 11.7-.617 28.968 0 49.23 11.855 59.26 19.477a165.783 165.783 0 0 0-13.468 9.336c-9.226-6.063-24.719-13.32-46-13.32l-.828.003a7.496 7.496 0 0 0-7.344 6.383c-2.422 16.11-3.215 40.332 6.188 65.77a179.912 179.912 0 0 0-5.524 12.367c-.609 1.507-2.445 6.367-2.773 7.293-19.637-38.746-15.86-77.04-11.367-97.727zm0 0"/></svg>