<svg xmlns="http://www.w3.org/2000/svg" viewBox="0 0 455 455" fill="#dbc1bc"><path d="M227.5 210C168.224 210 120 258.224 120 317.5S168.224 425 227.5 425 335 376.776 335 317.5 286.776 210 227.5 210zm0 200c-51.005 0-92.5-41.495-92.5-92.5s41.495-92.5 92.5-92.5 92.5 41.495 92.5 92.5-41.495 92.5-92.5 92.5z"/><path d="M227.5 250c-37.22 0-67.5 30.28-67.5 67.5s30.28 67.5 67.5 67.5 67.5-30.28 67.5-67.5-30.28-67.5-67.5-67.5zm0 120c-28.949 0-52.5-23.551-52.5-52.5s23.551-52.5 52.5-52.5 52.5 23.551 52.5 52.5-23.551 52.5-52.5 52.5z"/><path d="M397.5 180H293.853l-5.667-34.005C285.756 131.418 272.277 120 257.5 120h-60c-14.777 0-28.256 11.418-30.686 25.995L161.147 180H57.5C31.309 180 10 201.309 10 227.5v180c0 26.191 21.309 47.5 47.5 47.5h340c26.191 0 47.5-21.309 47.5-47.5v-180c0-26.191-21.309-47.5-47.5-47.5zm-215.89-31.539c1.216-7.296 8.493-13.461 15.89-13.461h60c7.397 0 14.674 6.165 15.89 13.461L278.647 180H176.353l5.257-31.539zM430 407.5c0 17.92-14.58 32.5-32.5 32.5h-340C39.58 440 25 425.42 25 407.5v-180c0-17.92 14.58-32.5 32.5-32.5h229.969l.022.001.012-.001H397.5c17.92 0 32.5 14.58 32.5 32.5v180z"/><path d="M70.001 165h33a7.5 7.5 0 0 0 0-15h-33a7.5 7.5 0 0 0 0 15zM377.5 220c-15.164 0-27.5 12.336-27.5 27.5s12.336 27.5 27.5 27.5 27.5-12.336 27.5-27.5-12.336-27.5-27.5-27.5zm0 40c-6.893 0-12.5-5.607-12.5-12.5s5.607-12.5 12.5-12.5 12.5 5.607 12.5 12.5-5.607 12.5-12.5 12.5zM139.127 149.312a7.499 7.499 0 0 0 10.605-.163 7.499 7.499 0 0 0-.163-10.605l-28.903-28.03 36.841-16.497a7.5 7.5 0 0 0 4.396-7.613L157.77 46.25l38.826 11.044a7.504 7.504 0 0 0 8.261-3.007L227.5 20.87l22.644 33.417a7.5 7.5 0 0 0 8.261 3.007L297.23 46.25l-4.134 40.154a7.498 7.498 0 0 0 4.396 7.613l36.841 16.497-28.903 28.03a7.5 7.5 0 1 0 10.442 10.768l36.849-35.736a7.498 7.498 0 0 0-2.156-12.229l-41.992-18.803 4.712-45.768a7.496 7.496 0 0 0-2.64-6.513 7.496 7.496 0 0 0-6.873-1.469l-44.254 12.588-25.81-38.089a7.5 7.5 0 0 0-12.417 0l-25.81 38.089-44.254-12.588a7.498 7.498 0 0 0-9.513 7.982l4.712 45.768-41.992 18.803a7.5 7.5 0 0 0-2.156 12.229l36.849 35.736z"/></svg>