<svg xmlns="http://www.w3.org/2000/svg" viewBox="0 0 512.002 512.002"><g fill="#dbc1bc"><path d="M471.662 288.898c-1.799-5.827-5.762-10.604-11.157-13.453-5.393-2.848-11.571-3.425-17.391-1.625-35.892 11.083-44.178 37.726-49.66 55.358-4.525 14.549-6.299 18.206-13.336 20.719-.989.353-1.969.696-2.943 1.032a589.648 589.648 0 0 1-7.621-28.083 105.408 105.408 0 0 0-4.045-22.371c8.487-3.456 16.415-7.348 23.72-11.676 39.307-23.289 60.083-58.831 60.083-102.784 0-19.53-3.983-38.532-11.622-56.371 21.193-31.623 27.032-70.488 15.961-107.35A30.32 30.32 0 0 0 428.15.896c-36.741-4.33-72.901 7.175-99.997 31.621-24.613-8.806-51.347-13.442-78.925-13.442s-54.312 4.635-78.925 13.441C143.207 8.069 107.047-3.433 70.305.897a30.312 30.312 0 0 0-25.5 21.398c-11.073 36.861-5.234 75.726 15.96 107.35-7.639 17.839-11.622 36.841-11.622 56.371 0 52.856 29.368 92.443 83.787 114.518a105.454 105.454 0 0 0-4.028 22.313c-5.509 22.558-14.264 51.741-21.54 66.561-3.771 7.679-4.325 16.366-1.562 24.461 2.764 8.096 8.515 14.631 16.193 18.402a31.727 31.727 0 0 0 14.098 3.284c12.316 0 23.338-6.865 28.765-17.916a154.21 154.21 0 0 0 2.261-4.831 119.713 119.713 0 0 0 8.212 6.53c.038 11.774-.031 25.019-.092 36.857l-.008 1.616c-.041 8.082-.08 15.69-.08 22.164 0 17.659 14.367 32.025 32.025 32.025 17.659 0 32.025-14.367 32.025-32.025 0-6.809.042-14.886.088-23.447l.001-.296c.023-4.446.046-9.013.065-13.599 3.259.248 6.552.38 9.878.38s6.619-.132 9.878-.38c.019 4.586.042 9.153.065 13.599l.001.297c.046 8.56.088 16.638.088 23.446 0 17.659 14.367 32.025 32.025 32.025a31.992 31.992 0 0 0 30.372-21.85 7.501 7.501 0 0 0-4.729-9.494 7.498 7.498 0 0 0-9.493 4.73 17.01 17.01 0 0 1-16.15 11.615c-9.389 0-17.026-7.638-17.026-17.026 0-6.832-.042-14.937-.088-23.524l-.002-.296c-.026-5.078-.052-10.313-.072-15.555a125.141 125.141 0 0 0 34.022-11.955c.006 7.973.045 16.266.086 24.288a7.5 7.5 0 0 0 7.499 7.461h.04a7.5 7.5 0 0 0 7.461-7.539c-.057-11.195-.11-22.915-.075-33.52a119.727 119.727 0 0 0 8.212-6.531 152.391 152.391 0 0 0 2.26 4.832c5.427 11.051 16.449 17.916 28.765 17.916 4.917 0 9.66-1.105 14.098-3.284 7.679-3.771 13.43-10.306 16.193-18.401 2.246-6.581 2.3-13.552.217-20.055.854-.298 1.72-.603 2.604-.919 29.22-10.436 36.654-34.339 41.574-50.157 3.504-11.27 5.697-17.387 11.099-21.345.071-.048.138-.102.208-.153 2.15-1.53 4.801-2.735 8.228-3.794a22.677 22.677 0 0 0 13.451-11.151 22.695 22.695 0 0 0 1.62-17.395zm-41.847-175.013c-9.777-17.021-23.086-32.695-39.625-46.387a195.989 195.989 0 0 0-3.551-2.87c18.734-15.105 39.274-22.453 55.511-26.014 3.255 17.882 4.12 46.264-12.335 75.271zm-3.419-98.092a15.321 15.321 0 0 1 11.884 8.315c-18.792 4.202-42.679 13.024-64.167 31.433-9.512-6.359-19.62-11.938-30.215-16.694 23.137-18.227 52.598-26.578 82.498-23.054zm-354.335 0c29.898-3.524 59.36 4.828 82.499 23.054-10.595 4.755-20.703 10.335-30.214 16.693-21.489-18.41-45.377-27.23-64.167-31.433a15.312 15.312 0 0 1 11.882-8.314zM56.308 38.615c16.236 3.56 36.774 10.91 55.51 26.013-1.196.943-2.38 1.9-3.551 2.87-16.538 13.692-29.848 29.366-39.625 46.387-16.455-29.007-15.589-57.389-12.334-75.27zm95.082 372.412c-2.886 5.876-8.748 9.527-15.301 9.527-2.605 0-5.124-.588-7.486-1.748a16.917 16.917 0 0 1-8.609-9.783 16.914 16.914 0 0 1 .831-13.005c4.236-8.627 8.667-20.932 12.695-33.797 4.579 14.486 12.197 27.763 22.166 39.189-1.475 3.58-2.915 6.805-4.296 9.617zm72.897 45.127l-.002.294c-.046 8.59-.088 16.695-.088 23.526 0 9.388-7.638 17.026-17.026 17.026s-17.026-7.638-17.026-17.026c0-6.454.039-14.035.079-22.088l.009-1.616c.046-8.819.095-18.415.102-27.625a125.148 125.148 0 0 0 34.023 11.955c-.018 5.241-.045 10.476-.071 15.554zm24.942-28.141c-58.24 0-105.62-43.79-105.62-97.615a90.683 90.683 0 0 1 3.436-24.722c9.966 3.255 20.639 5.998 32.014 8.197a7.494 7.494 0 0 0 8.787-5.94 7.5 7.5 0 0 0-5.939-8.788c-13.262-2.564-25.48-5.899-36.648-9.966-.118-.051-.232-.107-.354-.152a7.69 7.69 0 0 0-.702-.221c-19.163-7.101-35.148-16.412-47.756-27.848-21.435-19.443-32.304-44.658-32.304-74.943 0-83.78 83.029-151.939 185.086-151.939s185.086 68.159 185.086 151.939c0 38.909-17.741 69.149-52.73 89.88-8.418 4.988-17.761 9.356-27.923 13.099-.036.013-.072.021-.108.034-.028.01-.053.024-.081.035-28.784 10.567-64.188 16.076-104.243 16.076-11.237 0-22.286-.444-32.841-1.32-4.107-.348-7.752 2.725-8.095 6.854a7.5 7.5 0 0 0 6.855 8.094c10.965.91 22.431 1.372 34.081 1.372 38.517 0 73.108-4.958 102.174-14.497a90.673 90.673 0 0 1 3.446 24.757c-.001 53.824-47.382 97.614-105.621 97.614zm129.233-18.99a16.92 16.92 0 0 1-8.609 9.783 16.851 16.851 0 0 1-7.486 1.749c-6.553 0-12.415-3.651-15.301-9.527-1.378-2.806-2.818-6.032-4.297-9.616 9.97-11.426 17.588-24.703 22.165-39.189 4.028 12.864 8.46 25.169 12.696 33.797a16.904 16.904 0 0 1 .832 13.003zm44.266-70.739c-4.513 14.51-10.129 32.567-32.295 40.485a370.16 370.16 0 0 1-3.442 1.208c-1.757-4.443-3.547-9.437-5.312-14.735 1.153-.396 2.313-.799 3.485-1.218 14.807-5.288 18.252-16.366 22.613-30.391 3.285-10.563 7.098-22.789 17.006-32.487 1.625 4.799 4.169 9.867 8.133 14.319-5.08 6.417-7.538 14.297-10.188 22.819zm34.045-38.995a7.78 7.78 0 0 1-4.613 3.824c-2.781.859-5.251 1.852-7.472 2.959-3.979-4.148-5.933-9.553-6.878-14.074 2.922-1.446 6.151-2.739 9.734-3.846a7.759 7.759 0 0 1 5.958.559 7.78 7.78 0 0 1 3.828 4.614 7.776 7.776 0 0 1-.557 5.964z"/><path d="M151.445 228.983c-10.843 2.879-31.299 13.156-39.242 19.02a7.5 7.5 0 1 0 8.908 12.067c6.566-4.847 25.353-14.246 34.184-16.59a7.5 7.5 0 0 0-3.85-14.497zm23.603-60.541a7.5 7.5 0 0 0-7.5 7.5v12.314a7.5 7.5 0 0 0 7.5 7.5 7.5 7.5 0 0 0 7.5-7.5v-12.314a7.5 7.5 0 0 0-7.5-7.5zm49.696 34.924a7.501 7.501 0 0 0 10.581-.727c3.51-4.027 8.577-6.337 13.903-6.337s10.394 2.31 13.904 6.338a7.481 7.481 0 0 0 5.657 2.572 7.501 7.501 0 0 0 5.652-12.428 33.443 33.443 0 0 0-25.212-11.482 33.434 33.434 0 0 0-25.211 11.483 7.497 7.497 0 0 0 .726 10.581zm-79.437 14.315c4.097.538 7.875-2.346 8.418-6.453a7.5 7.5 0 0 0-6.453-8.418c-11.123-1.469-33.949.238-43.529 2.633a7.5 7.5 0 1 0 3.639 14.552c7.916-1.98 28.87-3.512 37.925-2.314zm207.843 0c9.057-1.198 30.009.333 37.926 2.313a7.506 7.506 0 0 0 1.825.226 7.5 7.5 0 0 0 1.814-14.778c-9.579-2.395-32.409-4.103-43.529-2.633a7.501 7.501 0 0 0 1.964 14.872zm-9.988 25.799c8.83 2.344 27.617 11.743 34.185 16.59a7.467 7.467 0 0 0 4.448 1.466 7.5 7.5 0 0 0 4.46-13.534c-7.945-5.865-28.402-16.141-39.243-19.02a7.501 7.501 0 0 0-3.85 14.498zm-19.752-47.724a7.5 7.5 0 0 0 7.5-7.5v-12.314a7.5 7.5 0 0 0-7.5-7.5 7.5 7.5 0 0 0-7.5 7.5v12.314a7.5 7.5 0 0 0 7.5 7.5z"/></g></svg>