<svg version="1.0" xmlns="http://www.w3.org/2000/svg" width="953.333" height="620" viewBox="0 0 715 465"><path d="M553.3 2c-1.5.8-4.1 2.9-5.7 4.8-2.5 2.8-2.9 4.2-3 9.2-.1 5.2.3 6.2 2.9 9 1.6 1.7 5.3 4.3 8.2 5.7 2.9 1.5 5.3 3 5.3 3.4 0 .4 1.1 1 2.5 1.3 1.4.4 2.5 1 2.5 1.5 0 .4 2.2 2.3 4.9 4.1l4.9 3.4-.5 8c-.8 11.6-.6 11.4-12 11.8-7.8.2-10.6-.1-13.5-1.5-2.1-.9-3.8-2.1-3.8-2.5 0-.4-1.2-1.3-2.7-1.9-4.1-1.8-13.7-7.3-14.3-8.2-1.1-1.8-7.7-3.2-10.3-2.2-1.4.5-2.7.8-2.9.5-.3-.2-2.3 1.2-4.5 3.1-3.1 2.7-4.1 4.3-4.6 7.5-1 7.6 1.3 10.8 13.4 18.5 6.6 4.2 17.1 11.6 18.7 13.2.7.7 1.7 1.3 2 1.3.4 0 3 2.1 5.8 4.7 2.9 2.7 6.9 6.4 9 8.3 8.6 7.8 23.6 25.8 30.8 37 2.7 4.1 5.6 8.6 6.5 10 1.7 2.6 10.5 20.3 12.7 25.5.6 1.6 1.8 4.3 2.5 6 .7 1.6 1.4 3.7 1.4 4.5.1.9.7 2.6 1.4 3.8.6 1.2.9 2.2.6 2.2-.3 0-.1.8.4 1.8.6 1.1 1.2 3 1.5 4.3.3 1.3 1 4.4 1.7 6.9 1.7 7 1.9 8.3 2.5 12 .2 1.9.6 4.6.8 6 1.3 7.7 1.7 12.7 1.8 24.1 0 7-.2 13.1-.6 13.7-.3.6.1 2.9 1 5.2 2.8 6.9 11.2 10.6 19.6 8.8 2.7-.6 8.8-6.4 8.9-8.5 0-1 .2-3.6.4-5.8.6-7.7.6-27-.1-32-.4-2.8-.6-6.8-.5-9 .1-4.2 2.9-10.5 4.5-10.5.5 0 1.8-.8 2.9-1.7 1.5-1.4 3.7-1.8 10.8-1.8 4.8 0 9.2.5 9.8 1 1.8 1.9 4.3 23.1 4.6 39.8.3 15.2.5 16.9 2.5 19.4 3.6 4.6 7.9 6.5 14.5 6.6 6.3.1 9.7-1.4 14.3-6 2.2-2.2 2.2-2.5 1.8-24-.4-22.7-2.2-37.6-6.7-55.4-1.1-4.6-2.4-10-2.9-11.9-2.7-11.4-10.7-31.1-20.8-51-10.3-20.5-17.5-31.4-36.8-56-8.1-10.2-31.4-32.8-45.4-43.9-8.5-6.7-9.4-7.4-11.2-8.6-.9-.6-6-4-11.5-7.7-5.6-3.6-11.4-7.3-13.1-8.2-3.6-1.9-8.8-1.7-12.9.4zm8.1 10.9c.3.5 3.2 2.4 6.4 4.1 3.1 1.8 7.5 4.7 9.7 6.4 2.1 1.7 4.6 3.5 5.5 4.1.9.5 3.2 2 5.1 3.2l3.4 2.3h-5.3c-4.7 0-9.5-1.8-11.2-4.2-.8-1.1-9.4-6.8-10.3-6.8-2.2 0-8.7-5.2-8.7-6.9 0-2.6 4.2-4.2 5.4-2.2zm38.4 33.2c7.4.3 8.8 1.2 21 13.6C628 67 645.3 87.3 649.3 93c3.7 5.3 11.2 16.6 12.3 18.5.6 1.1 2.5 4.4 4.2 7.3 7.4 12.3 21.2 42.9 22.7 49.9.2 1 .8 3.1 1.5 4.8 2.5 6.6 7.1 25.5 8.5 35.5.3 1.9 1 6.6 1.6 10.5 1.7 10.3 2.1 43.1.6 44.3-.7.6-2.4.8-3.8.5l-2.6-.5v-13.6c0-7.6-.4-16.4-.7-19.7-.4-3.3-.9-7.8-1.1-10-.3-2.2-.7-5.1-1-6.5-.2-1.4-.7-3.9-1.1-5.7-.7-3.4-4.7-7.6-8.5-8.8-1.3-.4-2.7-1.2-3-1.8-1.1-1.7-17.8-1.3-22.9.5-15.9 5.7-20.8 13.7-18.6 30.3.3 2.7.6 10.6.6 17.5v15.7c.1 3.4-2.4 6.6-4.8 6.1-1.4-.3-1.6-2.9-1.8-18.3-.3-19.2-.9-28.5-2.3-32.5-.5-1.4-1.4-5.4-2.1-9-.6-3.6-1.5-7.9-2-9.5-2.1-6.9-5.2-16.1-6-18-6.4-15.3-10.1-22.8-15.9-32.8-2.5-4.3-5.1-8.7-5.7-9.8-.6-1.1-2.1-3-3.3-4.3-1.1-1.2-2.1-2.6-2.1-3 0-1.7-18-22.9-26.5-31.2l-7.2-7-1.5-8.6-1.4-8.7 8.1.3c9.2.2 11.4-.5 17.7-5.8 5.2-4.3 5.7-6 6-17.9l.2-6.9 3 .6c1.7.3 5.9.6 9.4.7zM522 59c0 .5.5 1 1.1 1 1.2 0 16 8.7 16.9 9.9.3.4 1.3 1 2.3 1.4 1.1.4 1.7 1.7 1.7 3.6 0 1.6.3 3.7.7 4.6.5 1.5.3 1.6-1.5.6-1.1-.6-2.7-1.7-3.4-2.5-1.9-1.9-16.6-11.4-20-12.8-2.6-1.2-3.1-2.9-1.5-5.6 1-1.4 3.7-1.6 3.7-.2z"/><path d="M600.2 65.3c-3.5 3.5-4.3 5-4 7.3.3 2.5.8 2.9 3.7 3.2 2.8.3 4.1-.3 7.8-4 3.5-3.5 4.3-4.9 4.1-7.3-.3-2.6-.7-3-3.8-3.3-3-.2-4.1.3-7.8 4.1zm3.8 15.9c0 .5.5.6 1.1.2.6-.3.4.5-.5 1.8-.9 1.4-2.8 3-4.1 3.6-1.4.7-3 2.3-3.5 3.6-.5 1.4-1.9 2.6-3.2 2.8-2.7.4-3.4 2.6-1.6 5.1 1.1 1.5 1.8 1.5 5.1.5 2.3-.7 4.4-2.3 5.4-3.9.9-1.5 2.6-3 3.8-3.3 2.5-.6 5.9-6.3 5.4-9.1-.3-1.5-1.3-1.9-4.2-2-2-.1-3.7.2-3.7.7zm-27.8 7.1c-3.5 3.5-4.3 5-4 7.3.2 2.4.8 3 3.2 3.2 4.2.5 11.8-7 11.4-11.3-.3-2.5-.8-3-3.3-3.3-2.4-.2-3.8.6-7.3 4.1zM143.8 46.7c-.1.5-2.3 1.8-4.8 3.1-5.1 2.6-7.9 4.2-9.6 5.7-.6.5-2.2 1.7-3.4 2.5-1.3.8-3 2.3-3.9 3.2-.8 1-1.9 1.8-2.4 1.8-1.2 0-12.6 12.2-13.3 14.2-.3 1-1 1.8-1.5 1.8s-.9.7-.9 1.5c0 .9-.7 1.8-1.5 2.1-.8.4-1.5 1.2-1.5 2s-.4 1.4-1 1.4c-.5 0-1 .9-1 2s-.7 2.3-1.5 2.6c-.8.4-1.5 1.1-1.5 1.8 0 .6-.7 2.3-1.4 3.8-.8 1.6-1.8 4.8-2.1 7.3-.4 2.4-1.2 4.8-1.9 5.4-.6.5-8 1.1-16.5 1.3-10.8.3-15.6.8-15.9 1.6-.2.7-1 1.2-1.7 1.2-5.1 0-6.1 8.6-1.6 13.1 1.6 1.6 2.6 2.9 2.3 3-1.9.3 4.9 1.7 8.6 1.8 2.3.1 4.2.5 4.2 1.1 0 .6 3.5 1 8.5 1 8.4 0 8.5 0 8.5 2.5 0 1.4-.4 2.5-.9 2.5s-1.2 3.4-1.6 7.5c-.4 4.1-1.1 7.5-1.5 7.5-.4 0-1 3-1.2 6.6-.2 3.6-.9 6.9-1.6 7.2-.6.4-1.4 2.7-1.8 5-.4 2.3-1 4.2-1.5 4.2-.4 0-1.1 2-1.5 4.5-.3 2.5-1 4.5-1.5 4.5s-.9.9-.9 1.9c0 1.1-.7 2.6-1.5 3.5-.8.8-1.5 1.9-1.5 2.5 0 .6-.3 1.1-.8 1.1-.4 0-1.8 2.4-3.2 5.2-1.3 2.9-3 5.9-3.7 6.6-.7.7-1.3 1.9-1.3 2.6 0 .7-1 2.2-2.2 3.3-1.7 1.5-3.2 1.9-6 1.6-2.1-.3-3.8-.9-3.8-1.4 0-.5-4.7-.9-10.5-.9s-10.5.4-10.5.9-2 1.2-4.5 1.5c-2.5.4-4.5 1.1-4.5 1.6 0 .4-1.1 1.1-2.5 1.4-4.2 1.1-11.2 7.6-12.1 11.3C4 229 3.4 230 3 230c-.9 0-3 11.2-3 16.2 0 3 .8 4.4 4.7 8.2 2.5 2.5 5.4 4.6 6.4 4.6.9 0 1.9.6 2.2 1.2.5 1.7 30.4 1.9 31.5.2.4-.5 2.6-2 5-3.1 4.4-2.2 9.5-6.4 14.5-12.4 1.7-1.9 3.1-2.9 3.5-2.2.4.6 1.7 1.3 3 1.7 1.2.4 2.2 1.2 2.2 1.7s.6.9 1.4.9c.8 0 2.1.6 2.8 1.4.8.7 2.4 1.7 3.6 2 1.2.4 2.2 1.2 2.2 1.7s.6.9 1.4.9c.8 0 2.1.6 2.8 1.3.7.6 3.2 2.1 5.5 3.2 2.4 1.1 4.3 2.3 4.3 2.7 0 .3 2.3.9 5 1.3 2.8.4 5 1 5 1.5 0 1.2 11.7 2.4 23 2.4 11.2 0 21.2-1.2 20.5-2.4-.3-.4 1.5-1.1 4-1.4 2.5-.4 4.5-1.1 4.5-1.7 0-.5.4-.9 1-.9 1.1 0 16-8.9 17.8-10.7.7-.7 1.8-1.3 2.3-1.3.6 0 2-1 3.2-2.3 1.2-1.2 4-3.7 6.3-5.4l4.1-3.2 1.5 3.2c2.2 4.7 6.6 9.5 10.1 11.4 9.3 4.8 31.8-2.1 49.7-15.3 3.6-2.6 12.6-10.8 20.1-18.1l13.7-13.4 2.4 5.3c4.8 10.5 16.6 19.1 28.1 20.7 8.5 1.2 20.6-.4 29.7-3.9 8.6-3.4 22.2-11.8 31-19.4 3.4-2.9 5.6-4.2 5.9-3.4.2.6-.1 1.4-.7 1.6-.7.2-1.2 1.5-1.2 2.8 0 1.4-.6 4-1.4 5.8-.7 1.8-1.7 5.2-2.1 7.5-.4 2.2-1 4.1-1.5 4.1-.4 0-1.1 2-1.4 4.5-.4 2.5-1.1 4.5-1.7 4.5-.5 0-.9 1.1-.9 2.5s-.4 2.5-.9 2.5-1.1 1.8-1.5 4c-.3 2.2-1 4-1.6 4-.5 0-1.2 2-1.6 4.5-.3 2.5-1 4.5-1.5 4.5s-.9 1-.9 2.2c-.1 1.3-.9 4.1-2 6.3s-1.9 5-2 6.2c0 1.3-.4 2.3-.9 2.3s-1.1 1.9-1.5 4.2c-.4 2.3-1.2 4.5-1.7 4.9-.6.4-1.3 4.5-1.6 9.3l-.6 8.6 4 4c3.9 3.8 4.4 4 10.3 4s6.5-.2 9.6-3.6c1.9-1.9 3.4-4.2 3.4-5 0-.8.4-1.4.9-1.4s1.2-1.8 1.6-4c.4-2.2 1.1-4 1.6-4s.9-1 .9-2.3c0-1.2.7-3.4 1.4-4.9.8-1.6 1.8-4.8 2.2-7.3.3-2.5 1-4.5 1.5-4.5s.9-1.3.9-2.9c0-1.7.5-3.3 1.1-3.6.6-.4.8-1.3.5-2.1-.3-.7-.1-1.6.4-1.9.6-.4 1-2 1-3.6 0-1.7.4-2.8.9-2.5.5.3 1.2-1.6 1.6-4.4.4-2.7 1-5 1.5-5 .4 0 1.1-2.5 1.5-5.5.3-3 1-5.5 1.5-5.5s1.2-2 1.6-4.5c.3-2.5 1-4.5 1.4-4.5.5 0 1.1-1.3 1.5-3 .4-1.7 1-3 1.5-3 .4 0 1-1.8 1.4-4 .3-2.2 1.1-4 1.6-4 .6 0 1-.5 1-1.1 0-2.2 6.7-11.1 17.1-22.6 1.6-1.8 2.9-3.5 2.9-3.8 0-.3 3.9-4.5 8.8-9.5 4.8-4.9 9.2-9.5 9.8-10.2 2.2-2.4 8.2-7.8 8.8-7.8.3 0 1.9-1.4 3.6-3 1.7-1.7 3.5-3 4.1-3 .5 0 1.5-.5 2.2-1 4.7-4 6.3-5.1 8.8-6.2 1.6-.7 2.9-1.6 2.9-2 0-.3 1.4-.9 3-1.3 1.7-.4 3-1.1 3-1.5 0-.5 1.6-1.2 3.5-1.6 1.9-.3 3.8-1 4.1-1.5.2-.5 2.7-1.1 5.4-1.5 2.8-.4 5-1 5-1.5s1.4-.9 3-.9c1.7 0 3 .4 3 1 0 .5.8 1 1.8 1 1.1 0 3.2 1.1 4.8 2.5 2.9 2.5 2.9 2.6 2.9 13.2 0 7.6-.4 10.8-1.2 11-.7.3-1.3 1.2-1.3 2 0 1.7-3.9 8.6-5.2 9.1-.4.2-.8.9-.8 1.6 0 3-22.6 25.7-27 27.1-1.1.3-2 1.1-2 1.6s-.7.9-1.5.9-1.5.4-1.5.9-1.5 1.3-3.2 1.6c-1.8.4-3.6 1.2-3.9 1.7-.3.5-6 1.2-12.7 1.5-6.7.3-12.2.9-12.2 1.3s-3.5 1-7.7 1.4c-4.2.3-7.9 1-8.2 1.5-.3.4-1.6 1.1-2.8 1.5-1.3.4-2.6 1.8-2.9 3.2-.3 1.3-1 2.4-1.5 2.4-3.2 0 1.5 13.4 5.1 14.5 1.1.3 2 1.1 2 1.6s.5.9 1.1.9c.6 0 2.6.7 4.4 1.6 5.3 2.5 23.3 1 31-2.6 6.3-2.9 11.5-5 12.4-5 .6 0 1.1-.4 1.1-.9s1.8-1.2 4-1.6c2.2-.4 4-1 4-1.5 0-.4 2.7-1.1 6-1.5 3.3-.4 5.7-1.1 5.4-1.6-.3-.5 1.2-.9 3.3-.9 2.1-.1 5.6-.5 7.8-1s5.4-1.2 7-1.5c1.7-.4 5-1.6 7.5-2.8 2.5-1.1 5.2-2.2 6-2.3.8-.2 2.3-1.3 3.2-2.6 1-1.3 2.3-2.9 3-3.7.7-.8 1.4-4.2 1.6-7.6.4-5.2.1-6.3-1.3-6.9-2.2-.8-8.5.3-8.5 1.5 0 .5-1.8 1.2-4 1.5-2.2.4-3.7 1-3.4 1.5.3.5-.8.9-2.5.9-1.6 0-3.8.3-4.8.7-2 .7-.3-.9 5.6-5.5 3.9-3 10.3-9.4 13.3-13.3 1.2-1.6 3.1-4 4.1-5.1.9-1.2 1.7-2.7 1.7-3.5 0-.7.4-1.3.9-1.3s1.2-1.4 1.6-3c.4-1.7 1.1-3 1.6-3s.9-1.1.9-2.5.4-2.5 1-2.5c1.4 0 1.1-26.1-.4-30.1-3.4-8.8-3.9-9.9-4.6-9.9-.5 0-1.7-1.3-2.6-2.9-1-1.6-2.5-3.2-3.3-3.5-.9-.3-2.3-1-3.1-1.5-5.3-3.4-8.7-4.1-20.1-4.1-6.5 0-12 .4-12.4.9-.3.6-2.6 1.3-5 1.7-2.5.3-4.5 1-4.5 1.5 0 .4-1.6 1.1-3.5 1.5-1.9.3-3.5 1-3.5 1.4 0 .5-1.3 1.1-3 1.5-1.6.4-3 1-3 1.5s-1.3 1.1-3 1.5c-1.6.4-3 1-3 1.5s-1.4 1.1-3 1.5c-1.7.4-2.8 1.1-2.4 1.6.3.5-.2.9-1 .9-.9 0-1.6.3-1.6.8 0 .4-1.6 1.6-3.6 2.7-1.9 1-4.5 2.7-5.7 3.7-5.6 4.7-9.2 7.8-16.4 14.5-4.3 4-8.1 7.3-8.5 7.3-.5 0-.8.5-.8 1.1 0 .6-1.3 2.4-2.9 4-1.7 1.6-4.1 4.4-5.5 6.2-1.9 2.3-2.6 2.7-2.6 1.4 0-.9.4-1.7.9-1.7s1.2-2 1.5-4.5c.4-2.5 1.1-4.5 1.7-4.5.5 0 .9-.6.9-1.3 0-.6.6-2.4 1.4-3.9.8-1.5 1.7-4 2.1-5.7.4-1.7 1-3.1 1.5-3.1s1.1-1.4 1.5-3c.4-1.7 1.1-3 1.6-3s.9-1.1.9-2.4c0-1.3.5-2.6 1.1-2.8 1.6-.5 2.5-16.8 1-16.8-.7 0-.9-.4-.6-1 .3-.5-.9-2.3-2.7-3.9-2.8-2.6-4.1-3-8.9-3.1-5.1 0-5.9.3-9 3.4-5.2 5.2-6.9 7.8-6.9 10.3 0 1.3-.4 2.3-.9 2.3s-1.2 1.6-1.6 3.6c-.3 2-1 4.4-1.5 5.3-1 1.9-2.7 8.4-4.1 15.6-.5 2.7-1.4 5.9-1.9 7-.5 1.1-1.2 4-1.6 6.5-1 6.6-2.6 9.1-10.7 16.5-20.2 18.3-40.1 28.8-54.9 28.9-5.8.1-7.1-.3-10.9-2.9-5.7-4-9.4-9.6-11.5-17.2-2.2-8.3-1.5-16.7 3-35.6 4.5-18.6 4.6-23.8.7-32.1-1.7-3.4-4-7.1-5.3-8.3-5.6-5.2-26-7-38-3.3-7.4 2.3-19.8 9.5-29 16.8-23.8 18.9-43.9 51.1-49.7 79.8-1.6 7.6-2.5 9.8-4.6 11.7-1.4 1.2-3.8 3.4-5.3 4.8s-4 3.4-5.7 4.5c-1.6 1-3.4 2.2-4 2.7-2.6 2.1-11.8 7.7-12.6 7.7-.5 0-.9.4-.9.9s-1.3 1.2-3 1.6c-1.6.4-3 1-3 1.4 0 1.2-9.5 3.3-17.5 3.8-6 .4-9.4 0-13.7-1.4-3.2-1-5.8-2.1-5.8-2.5 0-.3-1.3-.9-3-1.3-1.6-.4-3-1-3-1.5s-1.3-1.1-3-1.5c-1.6-.4-3-1-3-1.3 0-.4-2.5-1.8-5.5-3.1-3-1.4-5.5-2.8-5.5-3.3 0-.4-.5-.8-1.1-.8-.5 0-3.1-1-5.7-2.1-3.8-1.7-4.3-2.3-3.1-3.3.7-.6 2.3-2.8 3.4-4.9 1.1-2 2.3-3.7 2.7-3.7.5 0 .8-.5.8-1.1 0-1.6 4.3-10.3 5.3-10.7.4-.2 1-2.1 1.3-4.3.4-2.1 1-3.9 1.5-3.9s.9-.9.9-1.9c0-1.1.6-2.6 1.3-3.3 1.3-1.3 3.1-7.4 4.7-16 .5-2.6 1.3-5.6 1.9-6.7.6-1.1 1.1-3.1 1.1-4.6 0-1.5.4-2.4 1-2 .5.3 1-.4.9-1.7-.1-4.9 1.4-15.9 2.2-16.4.5-.3.9-1.3.9-2.4 0-2.5 1.9-3 11.1-3 4.3 0 7.9-.4 7.9-.9s2.5-1.2 5.5-1.6c3-.3 5.5-1.1 5.5-1.6s.7-.9 1.5-.9c1.7 0 13.2-5.8 15.3-7.8.7-.6 1.7-1.2 2.2-1.2.5 0 2.3-1.2 3.9-2.8 1.6-1.5 4-3.6 5.3-4.7 3.1-2.7 11.8-14.6 11.8-16.2 0-.7.5-1.3 1-1.3.6 0 1-.9 1-1.9 0-1.1.4-2.2.9-2.5.5-.3 1.2-1.8 1.6-3.3.3-1.5 1.2-3.1 1.8-3.5 1.7-1.1 1.7-25 0-25.6-.7-.2-1.3-1-1.3-1.7 0-1.7-6-7.5-7.7-7.5-.8 0-1.1-.5-.8-1 .4-.7-5.5-1-16.9-1-9.6 0-17.6.3-17.8.7zm19.7 20.9c2 1.3 2.5 2.5 2.5 6 0 2.5-.8 5.9-2 7.9-1.1 1.9-1.8 3.5-1.5 3.5.8 0-2.8 4.3-8.2 9.7-2.9 2.9-5.9 5.3-6.8 5.3-.8 0-1.5.4-1.5 1 0 .5-1.6 1.2-3.5 1.6-1.9.3-3.5.9-3.5 1.3 0 .8-7.6 3.1-14 4.1-2.5.5-5.5 1.1-6.7 1.5-1.6.5-2.3.3-2.3-.5 0-1.9 3.3-9 4.1-9 .4 0 1-1.4 1.4-3 .4-1.7 1.1-3 1.6-3s.9-.6.9-1.3c0-1.8 11.8-14.9 16-17.7 1.2-.8 2.8-2 3.5-2.7.7-.7 2.4-1.5 3.9-1.9 1.4-.3 2.6-1 2.6-1.5s1.1-.9 2.4-.9c1.4 0 2.8-.5 3.1-1 .9-1.5 5.3-1.2 8 .6zm125.1 60.5c2.9 3.2 2.6 23.4-.4 34.2-8.3 29.3-30.5 53.3-58.1 62.8-7.6 2.7-12.7 2.5-14.6-.4-5.3-8.1-2.5-24.9 7.5-44.7 16.7-33.4 38.7-53.7 58.6-53.9 4-.1 5.5.4 7 2zm-244 104.4c1.9 1.8 1.7 2.4-1.9 5.7-3.1 2.7-13.9 5.4-17 4.2-3.8-1.4-2.6-7.3 2-9.7 3.8-2 15-2.2 16.9-.2z"/><path d="M577.5 228.9c-5.1 2.1-7.7 7.7-10.4 22.7-3 16.2-13.9 62.1-15.4 64.5-.6 1.1-2.1 2.2-3.2 2.4-2.3.5-27.5 3.1-38.5 4.1-4.1.3-9 1.2-10.7 2-3 1.2-3.3 1.7-3.3 5.6 0 5 2.9 10.4 6.3 11.7 5 1.9 12.7 2.1 24.2.6 21.5-2.7 22.4-2.4 20.4 7.7-1.4 7.2-3.4 9.9-16.3 21.6-25.3 22.9-49.3 36.1-66.4 36.4-8.2.1-13.3-2.2-18.5-8.3-8-9.3-8.6-19.3-2.6-42.6 5-19.4 5-24.2-.2-32.8-5.4-9-8-10-26.9-10-15.3 0-15.6 0-23 3.2-21.2 9.3-40.3 25.3-53.6 45-6.9 10.2-29.1 33-43.4 44.4-27.9 22.4-53.1 34.2-73.1 34.3-7.6.1-9.2-.2-14.4-2.9-12-6.1-17-17.5-16.9-38.5.1-34.5 13.2-64.8 40.7-93.7 17.9-18.8 44.1-33.7 56.2-31.8 2.5.3 4.5 1.1 4.5 1.6 0 1.6-3.5 7.9-8.4 15.2-6.7 10-6.3 17.2 1.1 20.4 8.5 3.5 16.7-1.9 22.7-14.8 4.2-9 7.6-19 7.6-22.2 0-5.3-8.4-14.8-17-19.2-4.3-2.2-17-2.2-25.4 0-8 2.1-24.9 11-36.6 19.3-11.3 8-30.1 26.4-39 38.1-29.3 38.8-39.2 88.4-24.2 121.3 3.5 7.7 11.4 16.6 18.1 20.6 13.7 8 37.9 8.3 59.4.5 16.9-6 40-19.7 57.2-33.7l8-6.6 1.3 8.3c2.2 14.7 10.3 26.7 19 28.3 8.6 1.6 22.7-1.8 37.4-9.2 8.5-4.3 23.7-15.8 35.6-26.9 5.1-4.8 9.4-8.6 9.5-8.4.1.2 1.3 2.5 2.6 5.2 7 13.9 23.8 21.3 42.8 18.8 19.5-2.5 34-10 59.3-31 8-6.5 14.6-11.8 14.8-11.7.1.2-.7 4.7-1.8 10.2-3 14.5-3.7 27.6-1.7 34.5 2 6.8 5.2 11.6 9.6 14.6 10.3 7 33.9-3.4 26.9-11.8-.7-.8-3-2.7-5.1-4.3-7.1-5.2-7.9-9.4-5.1-30.1 2.2-16.8 2.7-19.5 8.6-43.7l5.3-21.7 6.5-1.5c3.6-.8 14.6-2.4 24.5-3.6 40.9-4.7 62.1-10.1 70.6-17.7 3.5-3.2 3.9-4 3.9-8.3 0-6.3-1.2-6.6-12.9-4-5 1.1-13.1 2.9-17.9 4-9.9 2.2-42.7 6.5-57.4 7.5-11.7.8-13.8 0-13.8-5.1 0-5.6 3.7-22.2 9.2-40.8 7.3-25 7.5-33.6.7-37.1-3-1.6-8.2-1.9-11.4-.6zM418.9 336.6c1.8 2.3 2.1 4.1 2.1 11.9 0 26.5-14.5 51.1-39.7 67.6-13.3 8.6-32.2 14.9-35.9 11.8-4.9-4-5.6-13.1-1.9-24.6 8.8-27.8 33.6-58.1 54.2-66.2 5.8-2.3 8.3-2.8 14.5-3 3.9-.1 5 .3 6.7 2.5z"/></svg>