<svg viewBox="0 0 512 512" fill="#dbc1bc" xmlns="http://www.w3.org/2000/svg"><path d="M366 408c0 4.14-3.36 7.5-7.5 7.5s-7.5-3.36-7.5-7.5 3.36-7.5 7.5-7.5 7.5 3.36 7.5 7.5zm0 0"/><path d="M489.5 467h-20v-18.75a7.5 7.5 0 1 0-15 0V467h-33V334.5a7.5 7.5 0 0 0-7.5-7.5h-82a7.5 7.5 0 0 0-7.5 7.5V467h-18V334.5a7.5 7.5 0 0 0-7.5-7.5H160c-4.14 0-7.5 3.355-7.5 7.5s3.36 7.5 7.5 7.5h131.5v125h-15v-28.5a7.5 7.5 0 0 0-7.5-7.5H131a7.5 7.5 0 0 0-7.5 7.5V467h-15V342H128c4.14 0 7.5-3.355 7.5-7.5s-3.36-7.5-7.5-7.5h-27a7.5 7.5 0 0 0-7.5 7.5V467h-36V307.469c.387.015.773.031 1.168.031 9.895 0 18.762-4.496 24.668-11.55 5.902 7.054 14.766 11.55 24.664 11.55s18.762-4.496 24.668-11.55c5.906 7.054 14.77 11.55 24.668 11.55 9.894 0 18.762-4.496 24.668-11.55 5.902 7.054 14.766 11.55 24.664 11.55 9.898 0 18.762-4.496 24.668-11.55 5.906 7.054 14.77 11.55 24.668 11.55s18.762-4.496 24.668-11.55c5.902 7.054 14.77 11.55 24.664 11.55 9.898 0 18.762-4.496 24.668-11.55 5.906 7.054 14.77 11.55 24.668 11.55 9.894 0 18.762-4.496 24.668-11.55 5.902 7.054 14.765 11.55 24.664 11.55 9.898 0 18.762-4.496 24.668-11.55 5.906 7.054 14.77 11.55 24.668 11.55.39 0 .777-.016 1.168-.031V415.5c0 4.145 3.355 7.5 7.5 7.5a7.5 7.5 0 0 0 7.5-7.5V303.125c9.558-5.582 16-15.945 16-27.793V7.5a7.5 7.5 0 0 0-7.5-7.5H34a7.5 7.5 0 0 0-7.5 7.5V32a7.5 7.5 0 1 0 15 0V15h429v161.5h-429V63.832c0-4.14-3.36-7.5-7.5-7.5s-7.5 3.36-7.5 7.5v211.5c0 11.848 6.441 22.211 16 27.793V467h-20C10.094 467 0 477.094 0 489.5S10.094 512 22.5 512h467c12.406 0 22.5-10.094 22.5-22.5S501.906 467 489.5 467zM108 292.5c-9.465 0-17.168-7.7-17.168-17.168V249.5h34.332v25.832c.004 9.469-7.7 17.168-17.164 17.168zm49.332 0c-9.465 0-17.168-7.7-17.168-17.168V249.5H174.5v25.832c0 9.469-7.7 17.168-17.168 17.168zm49.336 0c-9.469 0-17.168-7.7-17.168-17.168V249.5h34.332v25.832c0 9.469-7.7 17.168-17.164 17.168zm49.332 0c-9.465 0-17.168-7.7-17.168-17.168V249.5h34.332v25.832c.004 9.469-7.7 17.168-17.164 17.168zm49.332 0c-9.465 0-17.168-7.7-17.168-17.168V249.5H322.5v25.832c0 9.469-7.7 17.168-17.168 17.168zm49.336 0c-9.469 0-17.168-7.7-17.168-17.168V249.5h34.332v25.832c0 9.469-7.7 17.168-17.164 17.168zm49.332 0c-9.465 0-17.168-7.7-17.168-17.168V249.5h34.332v25.832c.004 9.469-7.7 17.168-17.164 17.168zm66.5-17.168c0 9.469-7.7 17.168-17.168 17.168-9.465 0-17.168-7.7-17.168-17.168V249.5H470.5zm0-40.832h-34.332v-43H470.5zm-49.332 0h-34.332v-43h34.332zm-49.336 0H337.5v-43h34.332zm-49.332 0h-34.332v-43H322.5zm-49.332 0h-34.332v-43h34.332zm-49.336 0H189.5v-43h34.332zm-49.332 0h-34.332v-43H174.5zm-49.332 0H90.832v-43h34.332v43zm-49.336-43v43H41.5v-43zm-34.332 58h34.332v25.832c0 9.469-7.7 17.168-17.168 17.168-9.465 0-17.164-7.7-17.164-17.168zm298 92.5h67v125h-67zm-201 104h123v21h-123zm351 51h-467c-4.137 0-7.5-3.363-7.5-7.5s3.363-7.5 7.5-7.5h467c4.137 0 7.5 3.363 7.5 7.5s-3.363 7.5-7.5 7.5zm0 0"/><path d="M346 57.41C346 37.336 329.648 21 309.55 21c-17.152 0-31.566 11.906-35.417 27.875-5.809-1.207-11.88-1.852-18.133-1.852s-12.324.645-18.133 1.852C234.016 32.906 219.602 21 202.45 21 182.352 21 166 37.336 166 57.41c0 13.781 7.645 26.012 19.379 32.192-2.242 5.808-3.457 11.996-3.457 18.41C181.922 141.64 215.152 169 256 169s74.078-27.36 74.078-60.988c0-6.414-1.215-12.602-3.457-18.41C338.355 83.422 346 71.192 346 57.41zm-165 0C181 45.605 190.621 36 202.45 36c10.39 0 19.07 7.418 21.023 17.23-12.774 5.16-23.493 13.254-30.84 23.22A21.326 21.326 0 0 1 181 57.41zM256 154c-32.574 0-59.078-20.633-59.078-45.988 0-25.36 26.504-45.992 59.078-45.992s59.078 20.632 59.078 45.992C315.078 133.367 288.574 154 256 154zm63.367-77.55c-7.347-9.962-18.066-18.06-30.84-23.22C290.48 43.418 299.16 36 309.551 36 321.379 36 331 45.605 331 57.41c0 8.195-4.602 15.45-11.633 19.04zm0 0"/><path d="M244.684 85.996c0 4.14-3.36 7.5-7.5 7.5s-7.5-3.36-7.5-7.5 3.359-7.5 7.5-7.5 7.5 3.36 7.5 7.5zm37.632 0c0 4.14-3.359 7.5-7.5 7.5s-7.5-3.36-7.5-7.5 3.36-7.5 7.5-7.5 7.5 3.36 7.5 7.5zm0 0"/></svg>