<svg xmlns="http://www.w3.org/2000/svg" viewBox="0 0 511.999 511.999" fill="#dbc1bc"><path d="M199.646 192.716c-10.768 2.242-31.345 11.215-39.435 16.535a7.5 7.5 0 0 0-2.146 10.387 7.49 7.49 0 0 0 6.273 3.381 7.46 7.46 0 0 0 4.113-1.234c6.668-4.383 25.508-12.562 34.251-14.382a7.5 7.5 0 0 0-3.056-14.687z"/><path d="M452.168 249.232c7.387-14.18 11.64-30.154 12.592-47.678 1.037-19.088-1.841-37.873-8.349-55.717 22.391-29.821 30.157-67.53 21.285-104.178a29.842 29.842 0 0 0-23.922-22.395c-35.701-6.185-71.688 3.131-99.506 25.58-23.592-9.902-49.472-15.846-76.421-17.31-26.954-1.464-53.325 1.64-77.848 8.929C174.774 11.132 139.998-2.021 103.85.253a29.844 29.844 0 0 0-26.209 19.671c-12.79 35.47-9.156 73.798 9.873 105.87-8.403 17.034-13.3 35.396-14.338 54.484-1.479 27.213 5.197 51.432 19.843 71.981a7.5 7.5 0 0 0 12.215-8.706c-12.623-17.713-18.369-38.729-17.079-62.463 4.446-81.83 89.193-143.998 188.878-138.58 26.486 1.439 51.832 7.483 74.71 17.571.464.268.951.482 1.454.643 14.49 6.528 27.968 14.689 40.088 24.35.13.109.261.217.397.316a175.59 175.59 0 0 1 9.339 8.035c17.083 15.781 29.773 33.88 37.624 53.254.134.476.315.941.544 1.386 6.605 16.844 9.576 34.626 8.594 52.675-1.047 19.277-6.446 36.127-16.109 50.456a7.383 7.383 0 0 0-.525.764c-9.351 13.565-22.567 24.843-39.614 33.73-5.049 2.632-10.405 5.035-16.046 7.206-.025.009-.05.014-.075.023-.046.017-.089.04-.135.058-30.711 11.774-69.898 16.687-114.63 14.257-50.495-2.743-92.56-13.891-122.799-32.41a7.256 7.256 0 0 0-.596-.379l-.046-.023a139.444 139.444 0 0 1-11.296-7.758 7.5 7.5 0 0 0-9.112 11.915 150.292 150.292 0 0 0 7.309 5.231c-1.774 5.253-2.401 10.854-1.802 16.175a31.872 31.872 0 0 0-3.691 4.326c-5.11 7.217-8.992 14.506-11.631 21.791-33.187 34.531-60.91 73.238-76.181 106.411-4.887 10.619-.943 22.982 9.174 28.757 2.329 1.329 4.899 2.619 7.645 3.854a22.734 22.734 0 0 0 3.308 3.414 22.54 22.54 0 0 0 14.393 5.21 22.63 22.63 0 0 0 5.642-.721c13.054 3.315 28.397 5.784 45.744 7.357a31.307 31.307 0 0 0 3.58 14.356c5.458 10.428 16.165 16.906 27.942 16.906a31.594 31.594 0 0 0 14.594-3.598c15.634-8.183 28.139-17.237 38.635-26.661 10.853-.596 21.639-1.447 31.792-2.516-.394 7.625 1.953 15.412 7.202 21.738a31.444 31.444 0 0 0 24.267 11.392 31.25 31.25 0 0 0 18.724-6.174 7.5 7.5 0 0 0-8.926-12.056 16.346 16.346 0 0 1-9.798 3.229 16.48 16.48 0 0 1-12.723-5.97c-5.815-7.008-4.845-17.441 2.163-23.257 5.241-4.348 9.399-9.409 12.444-15.065 13.578-2.08 26.449-6.376 38.122-12.517-1.142 8.831-3.89 19.123-9.758 29.567a7.5 7.5 0 0 0 13.078 7.347c9.799-17.442 12.256-34.491 12.372-46.819 22.12-16.571 37.76-40.703 42.147-68.946 32.646-12.837 74.336-38.463 98.167-56.953 13.728-10.653 16.231-30.489 5.58-44.219a31.522 31.522 0 0 0-16.146-10.936zM137.346 67.42c-16.835 12.462-30.642 27.019-41.099 43.068-14.353-29.02-12.056-56.502-7.962-73.751 15.599 4.338 35.13 12.572 52.53 28.18a182.783 182.783 0 0 0-3.469 2.503zm16.471-10.906c-19.964-19.042-42.745-28.922-60.856-34.043a14.843 14.843 0 0 1 11.833-7.248c29.305-1.846 57.54 7.805 79.137 26.717-10.497 4.056-20.57 8.926-30.114 14.574zm244.187 13.268c-8.875-6.648-18.362-12.581-28.357-17.751 23.523-16.461 52.647-22.996 81.565-17.985 4.9.848 8.97 4.071 10.978 8.488-18.559 3.128-42.276 10.481-64.186 27.248zm51.383 59.895c-8.656-17.088-20.804-33.055-36.19-47.268a191.695 191.695 0 0 0-3.176-2.865c18.988-13.63 39.296-19.699 55.273-22.322 2.2 17.592 1.505 45.162-15.907 72.455zm-329.116 212.75c1.302-9.583 5.536-19.491 12.588-29.449a16.4 16.4 0 0 1 10.693-6.735c.94-.161 1.882-.24 2.817-.24 3.389 0 6.688 1.043 9.511 3.042a16.403 16.403 0 0 1 6.735 10.696 16.411 16.411 0 0 1-2.801 12.327c-5.527 7.807-7.929 14.847-6.586 19.315.211.705.525 1.374.932 1.987 2.486 3.752 8.884 5.992 15.235 5.32a16.407 16.407 0 0 1 12.126 3.573 16.407 16.407 0 0 1 6.043 11.103 16.404 16.404 0 0 1-3.574 12.124 16.401 16.401 0 0 1-11.101 6.045 56.097 56.097 0 0 1-5.91.315c-17.61 0-33.536-8.503-41.562-22.191-4.699-8.013-6.478-17.43-5.146-27.232zm-61 84.169a170.33 170.33 0 0 0-9.24 10.242 22.481 22.481 0 0 0-3.975 7.083 7.389 7.389 0 0 1 .374-5.135c12.283-26.682 33.133-57.253 58.537-86.154.578 8.756 3.11 17.109 7.511 24.616 3.001 5.118 6.802 9.691 11.222 13.625-18.246 4.799-40.206 11.148-64.07 35.356-.124.116-.242.24-.359.367zm13.832 29.446a7.49 7.49 0 0 1-2.808 2.088 7.421 7.421 0 0 0-.557.222 7.526 7.526 0 0 1-2.416.397 7.419 7.419 0 0 1-4.796-1.739 7.507 7.507 0 0 1-1.646-1.935c-.011-.018-.021-.037-.033-.055a7.477 7.477 0 0 1-.996-3.097 7.458 7.458 0 0 1 1.707-5.489 168.87 168.87 0 0 1 4.777-5.498c4.117 2.534 8.07 6.05 11.23 9.983a152.11 152.11 0 0 0-4.462 5.123zm4.141-25.892c18.777-16.512 35.644-20.94 52.072-25.244 3.998-1.047 7.818-2.057 11.64-3.233a65.88 65.88 0 0 0 9.455 3.145 115.017 115.017 0 0 0 5.83 7.342c-7.946 3.295-15.625 5.312-23.118 7.275-14.813 3.881-29.001 7.609-44.75 20.979a59.518 59.518 0 0 0-11.129-10.264zm45.001 35.484c-12.347-1.054-23.617-2.56-33.693-4.505 17.276-19.028 31.14-22.669 48.372-27.184 9.268-2.428 19.615-5.14 30.595-10.393.865.761 1.743 1.508 2.63 2.244-7.796 8.422-18.557 18.034-34.552 26.405a31.336 31.336 0 0 0-13.352 13.433zm35.623 29.124a16.322 16.322 0 0 1-7.638 1.888 16.49 16.49 0 0 1-14.653-8.861c-4.223-8.069-1.095-18.069 6.974-22.292 18.778-9.828 31.043-21.13 39.798-30.81 9.62 6.123 20.166 10.923 31.329 14.227-13.369 16.159-30.038 32.359-55.81 45.848zm88.713-38.528a31.388 31.388 0 0 0-6.231 6.972 570.128 570.128 0 0 1-20.933 2.07c3.752-4.226 7.243-8.468 10.561-12.686 1.277.201 2.558.388 3.846.551 5.07.64 10.101.958 15.078.991a40.095 40.095 0 0 1-2.321 2.102zm103.521-99.728c-6.585 52.206-57.904 88.874-114.4 81.753-18.584-2.345-35.899-9.221-50.401-19.689l-.021-.016a103.68 103.68 0 0 1-11.42-9.559 100.713 100.713 0 0 1-2.315-2.307c.979-.063 1.958-.13 2.932-.233 8.371-.891 15.895-4.987 21.185-11.536 5.289-6.549 7.712-14.766 6.82-23.136-.891-8.372-4.985-15.896-11.532-21.185-5.931-4.792-13.213-7.231-20.77-6.986a43.527 43.527 0 0 1 1.878-2.874 31.465 31.465 0 0 0 5.008-11.147c24.206 2.305 50.526 5.42 71.4 10.198-7.273 7.463-12.11 17.139-13.593 27.575a7.49 7.49 0 0 0-.119.941 48.397 48.397 0 0 0-.366 5.877 48.866 48.866 0 0 0 5.443 22.446c.144.337.308.662.497.97a49.466 49.466 0 0 0 8.754 11.605c-2.136.104-4.276-.074-6.28-.575-4.754-1.189-8.21-3.94-10.272-8.179-1.814-3.723-6.302-5.276-10.026-3.461a7.5 7.5 0 0 0-3.462 10.026c3.98 8.176 11.126 13.917 20.123 16.166 2.8.7 5.727 1.039 8.674 1.039 6.171 0 12.401-1.512 17.689-4.3a48.914 48.914 0 0 0 18.039 3.442c27.117 0 49.179-22.062 49.179-49.179 0-1.618-.102-3.22-.258-4.811a7.43 7.43 0 0 0-.089-.962 49.094 49.094 0 0 0-10.309-24.804c9.791-1.77 20.062-2.578 28.564-3.158a89.06 89.06 0 0 1-.552 16.059zm-36.756.931a34.116 34.116 0 0 1 3.335 8.291c-21.668 11.839-49.079 18.166-65.282 20.003a33.968 33.968 0 0 1-1.971-9.947c15.809-1.728 41.756-7.796 63.918-18.347zm-60.965 2.835c2.864-6.387 7.657-11.853 13.789-15.498 4.928 1.737 9.194 3.638 12.571 5.733a19.639 19.639 0 0 0 5.355 2.292c-11.845 3.761-23.188 6.21-31.715 7.473zm64.325 22.273c-3.74 14.817-17.177 25.818-33.14 25.818-8.774 0-16.783-3.326-22.842-8.779 15.881-2.543 37.064-8.013 55.982-17.039zm36.087-57.273c-13.383.89-32.03 2.146-47.849 7.076a7.665 7.665 0 0 0-.871.278c-4.368 1.409-8.519 3.089-12.25 5.149-1.705.942-3.641.936-5.177-.017-21.182-13.135-64.843-19.037-109.839-23.257a31.31 31.31 0 0 0-3.297-7.949c25.565 8.554 55.289 13.868 88.322 15.663 7.68.418 15.203.625 22.572.625 33.94-.001 64.435-4.42 90.193-13.005.296 3.705-.271 7.119-1.706 9.558-1.569 2.668-4.196 4.253-8.03 4.846-2.609.404-6.993.696-12.068 1.033zm100.742-32.731c-21.617 16.773-58.341 39.354-87.742 52.064a103.016 103.016 0 0 0-.184-5.33c.539-.067 1.06-.136 1.545-.211 10.52-1.626 15.958-7.458 18.668-12.063 3.649-6.202 4.72-14.301 3.167-22.59a164.954 164.954 0 0 0 11.479-5.415c18.078-9.425 32.521-21.548 43.127-36.008a16.518 16.518 0 0 1 12.865 6.38c5.581 7.195 4.269 17.59-2.925 23.173z"/><path d="M369.988 169.683a7.5 7.5 0 0 0 7.482-7.093l.654-12.04a7.5 7.5 0 0 0-7.082-7.896c-4.112-.228-7.672 2.945-7.896 7.082l-.654 12.04a7.499 7.499 0 0 0 7.496 7.907zm27.521 23.007c8.9-.686 29.276 1.918 36.902 4.27.736.228 1.48.336 2.213.336a7.5 7.5 0 0 0 2.209-14.668c-9.252-2.854-31.513-5.742-42.479-4.893a7.499 7.499 0 0 0-6.9 8.055 7.492 7.492 0 0 0 8.055 6.9zm-16.015 15.239a7.501 7.501 0 0 0 4.818 9.449c8.495 2.757 26.339 12.929 32.492 18.009a7.47 7.47 0 0 0 4.771 1.716 7.5 7.5 0 0 0 4.779-13.284c-7.467-6.165-26.95-17.314-37.412-20.71a7.502 7.502 0 0 0-9.448 4.82zm-184.477-41.026c-10.81-2.03-33.253-1.574-42.76.261a7.5 7.5 0 0 0 2.842 14.729c7.837-1.512 28.371-1.895 37.148-.247a7.5 7.5 0 0 0 2.77-14.743zm27.908-5.103a7.5 7.5 0 0 0 7.482-7.093l.654-12.04a7.499 7.499 0 0 0-7.082-7.895c-4.124-.226-7.671 2.945-7.896 7.082l-.654 12.04a7.5 7.5 0 0 0 7.496 7.906zm71.617 13.176a32.913 32.913 0 0 0 25.381-9.934 7.5 7.5 0 0 0-10.758-10.454 17.925 17.925 0 0 1-13.81 5.411 17.908 17.908 0 0 1-13.144-6.876 7.5 7.5 0 0 0-11.826 9.227 32.901 32.901 0 0 0 24.157 12.626z"/></svg>