<svg viewBox="0 0 496 496" fill="#dbc1bc" xmlns="http://www.w3.org/2000/svg"><path d="M151.645 96c22.054 0 40-21.527 40-48s-17.946-48-40-48c-22.06 0-40 21.527-40 48s17.94 48 40 48zm0-80c13.23 0 24 14.352 24 32s-10.77 32-24 32c-13.235 0-24-14.352-24-32s10.765-32 24-32zm-73.54 110.465c7.801-7.8 11.356-18.746 10.008-30.824-1.261-11.418-6.832-22.57-15.664-31.403-18.71-18.718-46.636-21.246-62.23-5.664-15.59 15.602-13.055 43.516 5.656 62.227 10.473 10.472 23.824 15.87 36.29 15.87 9.808.009 19.07-3.343 25.94-10.206zM21.531 69.887c3.809-3.809 9.008-5.649 14.68-5.649 8.258 0 17.52 3.907 24.922 11.305 6.27 6.281 10.207 14.043 11.078 21.855.8 7.153-1.137 13.457-5.426 17.747-9.351 9.343-27.125 6.824-39.597-5.657S12.18 79.246 21.53 69.887zm229.59 66.793c12.473 0 25.824-5.407 36.29-15.871 18.71-18.711 21.25-46.633 5.655-62.223-15.59-15.61-43.52-13.043-62.222 5.652-8.832 8.832-14.403 19.992-15.664 31.403-1.344 12.078 2.207 23.023 10.008 30.824 6.863 6.87 16.128 10.215 25.933 10.215zm-20.047-39.282c.863-7.812 4.809-15.574 11.082-21.855 7.399-7.398 16.656-11.305 24.918-11.305 5.672 0 10.871 1.84 14.68 5.649 9.351 9.36 6.824 27.129-5.656 39.601-12.48 12.473-30.254 15-39.598 5.657-4.297-4.29-6.227-10.594-5.426-17.747zM470.379 400c-6.574 0-13.008 2.664-17.656 7.313l-5.375 5.375L434.66 400l16-16-115.312-115.313-12 12-20-20-16 16-16.578-16.574c.546-3.05.882-6.16.882-9.36V232c0-66.168-53.832-120-120-120s-120 53.832-120 120v18.742C31.652 280.105 55.54 304 84.906 304c14.227 0 27.594-5.535 37.656-15.602l7.434-7.43c5.695-5.702 13.582-8.968 21.649-8.968 8.062 0 15.949 3.266 21.656 8.969l7.43 7.43C190.796 298.464 204.163 304 218.386 304c19.914 0 37.281-11 46.418-27.23l11.23 11.23-16 16 20 20-12 12 115.313 115.313 16-16L412.035 448l-5.375 5.375c-4.648 4.648-7.312 11.082-7.312 17.656 0 13.77 11.199 24.969 24.968 24.969 6.575 0 13.008-2.664 17.657-7.313l46.062-46.062c4.649-4.648 7.313-11.082 7.313-17.656 0-13.77-11.2-24.969-24.97-24.969zM218.387 288c-9.953 0-19.305-3.871-26.344-10.91l-7.434-7.434c-8.68-8.68-20.695-13.656-32.964-13.656-12.274 0-24.29 4.977-32.97 13.656l-7.433 7.434c-7.039 7.039-16.39 10.91-26.344 10.91-20.543 0-37.253-16.71-37.253-37.258V232c0-57.344 46.656-104 104-104s104 46.656 104 104v12.984l-50.641-50.64-11.313 11.312 59.153 59.153C247.28 278.39 233.954 288 218.387 288zm64.273 16l20.688-20.688 8.687 8.688-20.687 20.688zm80 104l18.344-18.344-11.313-11.312-18.343 18.344L338.66 384l18.344-18.344-11.313-11.312-18.343 18.344L314.66 360l18.344-18.344-11.313-11.312-18.343 18.344L290.66 336l44.688-44.688L428.035 384l-44.687 44.688zm48 16l12.688-12.688L436.035 424l-12.687 12.688zm66.063 7.313l-46.063 46.062a9.03 9.03 0 0 1-6.344 2.625c-4.945 0-8.968-4.023-8.968-8.969a9.03 9.03 0 0 1 2.625-6.344l46.062-46.062A9.03 9.03 0 0 1 470.38 416c4.945 0 8.969 4.023 8.969 8.969a9.03 9.03 0 0 1-2.625 6.344zm0 0"/></svg>